<svg xmlns="http://www.w3.org/2000/svg" style="width: 1690px; height: 727px; overflow: hidden;" preserveAspectRatio="none meet" width="1690px" height="727px" contentScriptType="application/ecmascript" contentStyleType="text/css" zoomAndPan="magnify" version="1.1"><defs><style id="svg-pan-zoom-controls-styles" type="text/css">.svg-pan-zoom-control { cursor: pointer; fill: black; fill-opacity: 0.333; } .svg-pan-zoom-control:hover { fill-opacity: 0.8; } .svg-pan-zoom-control-background { fill: white; fill-opacity: 0.5; } .svg-pan-zoom-control-background { fill-opacity: 0.8; }</style></defs></defs><g xmlns="http://www.w3.org/2000/svg" class="svg-pan-zoom_viewport" style="transform: matrix(0.669823, 0, 0, 0.669823, -2.43783e-005, 79.5195);" transform="matrix(0.669823 0 0 0.669823 -2.43783e-005 79.5195)"><!--MD5=[c7a4804fef0e1a4e647df6221de2fae3]
cluster PROG::ZCONCURRENCY_API--><polygon style="stroke: #000000; stroke-width: 1.5;" fill="#ffffff" points="1286,6 1489,6 1496,29.6094 1499,29.6094 1499,161 1286,161 1286,6" /><line style="stroke: #000000; stroke-width: 1.5;" x1="1286" y1="29.6094" x2="1496" y2="29.6094" /><text font-family="sans-serif" font-size="14" font-weight="bold" fill="#000000" lengthAdjust="spacingAndGlyphs" textLength="197" x="1290" y="22.5332">PROG::ZCONCURRENCY_API</text><!--MD5=[6049bc98bfcba5d159b410a47006aca3]
cluster PROG::ZCONCURRENCY_API_EXAMPLE--><polygon style="stroke: #000000; stroke-width: 1.5;" fill="#ffffff" points="192,394.5 469,394.5 476,418.109 865,418.109 865,720 192,720 192,394.5" /><line style="stroke: #000000; stroke-width: 1.5;" x1="192" y1="418.109" x2="476" y2="418.109" /><text font-family="sans-serif" font-size="14" font-weight="bold" fill="#000000" lengthAdjust="spacingAndGlyphs" textLength="271" x="196" y="411.0332">PROG::ZCONCURRENCY_API_EXAMPLE</text><!--MD5=[a61befca5c37dbbd945fa64e3f2341c4]
class PROG::ZCONCURRENCY_API::ZCONCURRENCY_API--><rect id="PROG::ZCONCURRENCY_API::ZCONCURRENCY_API" style="stroke: #a80036; stroke-width: 1.5;" fill="#fefece" x="1303.5" y="42" width="175" height="103.344" codeline="90" /><ellipse style="stroke: #a80036; stroke-width: 1;" fill="#00ffee" cx="1325.25" cy="58" rx="11" ry="11" /><path fill="#000000" d="M 1325.88 59.5469 L 1325.88 61.2969 L 1327.58 61.2969 Q 1328.2 61.2969 1328.46 61.5313 Q 1328.72 61.7656 1328.72 62.1563 Q 1328.72 62.5313 1328.46 62.7656 Q 1328.2 63 1327.58 63 L 1323.91 63 Q 1323.28 63 1323.02 62.7656 Q 1322.77 62.5313 1322.77 62.1406 Q 1322.77 61.7656 1323.03 61.5313 Q 1323.3 61.2969 1323.91 61.2969 L 1324.17 61.2969 L 1324.17 54.6406 L 1323.91 54.6406 Q 1323.28 54.6406 1323.02 54.4063 Q 1322.77 54.1719 1322.77 53.7813 Q 1322.77 53.4063 1323.02 53.1719 Q 1323.28 52.9375 1323.91 52.9375 L 1327.81 52.9375 Q 1329.55 52.9375 1330.55 53.8828 Q 1331.56 54.8281 1331.56 56.1719 Q 1331.56 56.9219 1331.22 57.5938 Q 1330.97 58.0781 1330.37 58.5703 Q 1329.77 59.0625 1329.13 59.3047 Q 1328.5 59.5469 1327.48 59.5469 L 1325.88 59.5469 Z M 1325.88 57.8438 L 1327.44 57.8438 Q 1328.56 57.8438 1329.21 57.3438 Q 1329.86 56.8438 1329.86 56.1406 Q 1329.86 55.5313 1329.34 55.0859 Q 1328.81 54.6406 1327.83 54.6406 L 1325.88 54.6406 L 1325.88 57.8438 Z" /><text font-family="sans-serif" font-size="12" fill="#000000" lengthAdjust="spacingAndGlyphs" textLength="128" x="1340.75" y="62.9102">ZCONCURRENCY_API</text><line style="stroke: #a80036; stroke-width: 1.5;" x1="1304.5" y1="74" x2="1477.5" y2="74" /><line style="stroke: #a80036; stroke-width: 1.5;" x1="1304.5" y1="82" x2="1477.5" y2="82" /><ellipse style="stroke: #038048; stroke-width: 1;" fill="#84be84" cx="1314.5" cy="93" rx="3" ry="3" /><text font-family="sans-serif" font-size="11" fill="#000000" lengthAdjust="spacingAndGlyphs" textLength="67" x="1323.5" y="97.4189">AFTER_RFC()</text><ellipse style="stroke: #038048; stroke-width: 1;" fill="#84be84" cx="1314.5" cy="106.836" rx="3" ry="3" /><text font-family="sans-serif" font-size="11" fill="#000000" lengthAdjust="spacingAndGlyphs" textLength="74" x="1323.5" y="111.2549">BEFORE_RFC()</text><ellipse style="stroke: #038048; stroke-width: 1;" fill="#84be84" cx="1314.5" cy="120.672" rx="3" ry="3" /><text font-family="sans-serif" font-size="11" fill="#000000" lengthAdjust="spacingAndGlyphs" textLength="43" x="1323.5" y="125.0908">IN_RFC()</text><ellipse style="stroke: #038048; stroke-width: 1;" fill="#84be84" cx="1314.5" cy="134.508" rx="3" ry="3" /><text font-family="sans-serif" font-size="11" fill="#000000" lengthAdjust="spacingAndGlyphs" textLength="149" x="1323.5" y="138.9268">PROCESS_FAILED_OBJECTS()</text><!--MD5=[576ea0b4bf02e55322211af34f78d437]
class PROG::ZCONCURRENCY_API_EXAMPLE::ZCONCURRENCY_API_EXAMPLE--><rect id="PROG::ZCONCURRENCY_API_EXAMPLE::ZCONCURRENCY_API_EXAMPLE" style="stroke: #a80036; stroke-width: 1.5;" fill="#fefece" x="627.5" y="451.5" width="221" height="48" codeline="105" /><ellipse style="stroke: #a80036; stroke-width: 1;" fill="#00ffee" cx="642.5" cy="467.5" rx="11" ry="11" /><path fill="#000000" d="M 643.125 469.047 L 643.125 470.797 L 644.828 470.797 Q 645.453 470.797 645.711 471.031 Q 645.969 471.266 645.969 471.656 Q 645.969 472.031 645.711 472.266 Q 645.453 472.5 644.828 472.5 L 641.156 472.5 Q 640.531 472.5 640.273 472.266 Q 640.016 472.031 640.016 471.641 Q 640.016 471.266 640.281 471.031 Q 640.547 470.797 641.156 470.797 L 641.422 470.797 L 641.422 464.141 L 641.156 464.141 Q 640.531 464.141 640.273 463.906 Q 640.016 463.672 640.016 463.281 Q 640.016 462.906 640.273 462.672 Q 640.531 462.438 641.156 462.438 L 645.063 462.438 Q 646.797 462.438 647.805 463.383 Q 648.813 464.328 648.813 465.672 Q 648.813 466.422 648.469 467.094 Q 648.219 467.578 647.617 468.07 Q 647.016 468.563 646.383 468.805 Q 645.75 469.047 644.734 469.047 L 643.125 469.047 Z M 643.125 467.344 L 644.688 467.344 Q 645.813 467.344 646.461 466.844 Q 647.109 466.344 647.109 465.641 Q 647.109 465.031 646.586 464.586 Q 646.063 464.141 645.078 464.141 L 643.125 464.141 L 643.125 467.344 Z" /><text font-family="sans-serif" font-size="12" fill="#000000" lengthAdjust="spacingAndGlyphs" textLength="189" x="656.5" y="472.4102">ZCONCURRENCY_API_EXAMPLE</text><line style="stroke: #a80036; stroke-width: 1.5;" x1="628.5" y1="483.5" x2="847.5" y2="483.5" /><line style="stroke: #a80036; stroke-width: 1.5;" x1="628.5" y1="491.5" x2="847.5" y2="491.5" /><!--MD5=[8e27d38e03609419d236f41b2456b294]
class PROG::ZCONCURRENCY_API_EXAMPLE::LCL_APP--><rect id="PROG::ZCONCURRENCY_API_EXAMPLE::LCL_APP" style="stroke: #a80036; stroke-width: 1.5;" fill="#fefece" x="507.5" y="444.5" width="85" height="61.8359" codeline="108" /><ellipse style="stroke: #a80036; stroke-width: 1;" fill="#add1b2" cx="522.5" cy="460.5" rx="11" ry="11" /><path fill="#000000" d="M 525.266 456.375 Q 525.422 456.156 525.609 456.047 Q 525.797 455.938 526.016 455.938 Q 526.391 455.938 526.625 456.195 Q 526.859 456.453 526.859 457.063 L 526.859 458.516 Q 526.859 459.125 526.625 459.391 Q 526.391 459.656 526.016 459.656 Q 525.672 459.656 525.469 459.453 Q 525.266 459.266 525.156 458.75 Q 525.109 458.391 524.922 458.203 Q 524.594 457.828 523.984 457.609 Q 523.375 457.391 522.75 457.391 Q 521.984 457.391 521.352 457.719 Q 520.719 458.047 520.227 458.797 Q 519.734 459.547 519.734 460.578 L 519.734 461.672 Q 519.734 462.906 520.625 463.727 Q 521.516 464.547 523.109 464.547 Q 524.047 464.547 524.703 464.297 Q 525.094 464.141 525.516 463.703 Q 525.781 463.438 525.93 463.359 Q 526.078 463.281 526.281 463.281 Q 526.609 463.281 526.867 463.539 Q 527.125 463.797 527.125 464.141 Q 527.125 464.484 526.781 464.891 Q 526.281 465.469 525.484 465.797 Q 524.406 466.25 523.109 466.25 Q 521.594 466.25 520.391 465.625 Q 519.406 465.125 518.719 464.055 Q 518.031 462.984 518.031 461.703 L 518.031 460.547 Q 518.031 459.219 518.648 458.07 Q 519.266 456.922 520.359 456.305 Q 521.453 455.688 522.688 455.688 Q 523.422 455.688 524.07 455.852 Q 524.719 456.016 525.266 456.375 Z" /><text font-family="sans-serif" font-size="12" fill="#000000" lengthAdjust="spacingAndGlyphs" textLength="53" x="536.5" y="465.4102">LCL_APP</text><line style="stroke: #a80036; stroke-width: 1.5;" x1="508.5" y1="476.5" x2="591.5" y2="476.5" /><line style="stroke: #a80036; stroke-width: 1.5;" x1="508.5" y1="484.5" x2="591.5" y2="484.5" /><ellipse style="stroke: #038048; stroke-width: 1;" fill="#84be84" cx="518.5" cy="495.5" rx="3" ry="3" /><text font-family="sans-serif" font-size="11" fill="#000000" lengthAdjust="spacingAndGlyphs" textLength="33" x="527.5" y="499.9189">MAIN()</text><!--MD5=[5978e8ec034877c0de269f3f6d25d8fd]
class PROG::ZCONCURRENCY_API_EXAMPLE::LCL_CONTEXT--><rect id="PROG::ZCONCURRENCY_API_EXAMPLE::LCL_CONTEXT" style="stroke: #a80036; stroke-width: 1.5;" fill="#fefece" x="208" y="430.5" width="118" height="89.5078" codeline="112" /><ellipse style="stroke: #a80036; stroke-width: 1;" fill="#add1b2" cx="223" cy="446.5" rx="11" ry="11" /><path fill="#000000" d="M 225.766 442.375 Q 225.922 442.156 226.109 442.047 Q 226.297 441.938 226.516 441.938 Q 226.891 441.938 227.125 442.195 Q 227.359 442.453 227.359 443.063 L 227.359 444.516 Q 227.359 445.125 227.125 445.391 Q 226.891 445.656 226.516 445.656 Q 226.172 445.656 225.969 445.453 Q 225.766 445.266 225.656 444.75 Q 225.609 444.391 225.422 444.203 Q 225.094 443.828 224.484 443.609 Q 223.875 443.391 223.25 443.391 Q 222.484 443.391 221.852 443.719 Q 221.219 444.047 220.727 444.797 Q 220.234 445.547 220.234 446.578 L 220.234 447.672 Q 220.234 448.906 221.125 449.727 Q 222.016 450.547 223.609 450.547 Q 224.547 450.547 225.203 450.297 Q 225.594 450.141 226.016 449.703 Q 226.281 449.438 226.43 449.359 Q 226.578 449.281 226.781 449.281 Q 227.109 449.281 227.367 449.539 Q 227.625 449.797 227.625 450.141 Q 227.625 450.484 227.281 450.891 Q 226.781 451.469 225.984 451.797 Q 224.906 452.25 223.609 452.25 Q 222.094 452.25 220.891 451.625 Q 219.906 451.125 219.219 450.055 Q 218.531 448.984 218.531 447.703 L 218.531 446.547 Q 218.531 445.219 219.148 444.07 Q 219.766 442.922 220.859 442.305 Q 221.953 441.688 223.188 441.688 Q 223.922 441.688 224.57 441.852 Q 225.219 442.016 225.766 442.375 Z" /><text font-family="sans-serif" font-size="12" fill="#000000" lengthAdjust="spacingAndGlyphs" textLength="86" x="237" y="451.4102">LCL_CONTEXT</text><line style="stroke: #a80036; stroke-width: 1.5;" x1="209" y1="462.5" x2="325" y2="462.5" /><ellipse style="stroke: #038048; stroke-width: 1;" fill="none" cx="219" cy="473.5" rx="3" ry="3" /><text font-family="sans-serif" font-size="11" fill="#000000" lengthAdjust="spacingAndGlyphs" textLength="65" x="228" y="477.9189">MS_PARAMS</text><line style="stroke: #a80036; stroke-width: 1.5;" x1="209" y1="484.336" x2="325" y2="484.336" /><ellipse style="stroke: #038048; stroke-width: 1;" fill="#84be84" cx="219" cy="495.336" rx="3" ry="3" /><text font-family="sans-serif" font-size="11" fill="#000000" lengthAdjust="spacingAndGlyphs" textLength="85" x="228" y="499.7549">CONSTRUCTOR()</text><ellipse style="stroke: #038048; stroke-width: 1;" fill="#84be84" cx="219" cy="509.172" rx="3" ry="3" /><text font-family="sans-serif" font-size="11" fill="#000000" lengthAdjust="spacingAndGlyphs" textLength="28" x="228" y="513.5908">GET()</text><!--MD5=[93f7c4c4b69dfb0140016f1c54f1f9d5]
class PROG::ZCONCURRENCY_API_EXAMPLE::LCL_TASK--><rect id="PROG::ZCONCURRENCY_API_EXAMPLE::LCL_TASK" style="stroke: #a80036; stroke-width: 1.5;" fill="#fefece" x="208" y="601" width="142" height="103.344" codeline="126" /><ellipse style="stroke: #a80036; stroke-width: 1;" fill="#add1b2" cx="245.5" cy="617" rx="11" ry="11" /><path fill="#000000" d="M 248.266 612.875 Q 248.422 612.656 248.609 612.547 Q 248.797 612.438 249.016 612.438 Q 249.391 612.438 249.625 612.695 Q 249.859 612.953 249.859 613.563 L 249.859 615.016 Q 249.859 615.625 249.625 615.891 Q 249.391 616.156 249.016 616.156 Q 248.672 616.156 248.469 615.953 Q 248.266 615.766 248.156 615.25 Q 248.109 614.891 247.922 614.703 Q 247.594 614.328 246.984 614.109 Q 246.375 613.891 245.75 613.891 Q 244.984 613.891 244.352 614.219 Q 243.719 614.547 243.227 615.297 Q 242.734 616.047 242.734 617.078 L 242.734 618.172 Q 242.734 619.406 243.625 620.227 Q 244.516 621.047 246.109 621.047 Q 247.047 621.047 247.703 620.797 Q 248.094 620.641 248.516 620.203 Q 248.781 619.938 248.93 619.859 Q 249.078 619.781 249.281 619.781 Q 249.609 619.781 249.867 620.039 Q 250.125 620.297 250.125 620.641 Q 250.125 620.984 249.781 621.391 Q 249.281 621.969 248.484 622.297 Q 247.406 622.75 246.109 622.75 Q 244.594 622.75 243.391 622.125 Q 242.406 621.625 241.719 620.555 Q 241.031 619.484 241.031 618.203 L 241.031 617.047 Q 241.031 615.719 241.648 614.57 Q 242.266 613.422 243.359 612.805 Q 244.453 612.188 245.688 612.188 Q 246.422 612.188 247.07 612.352 Q 247.719 612.516 248.266 612.875 Z" /><text font-family="sans-serif" font-size="12" fill="#000000" lengthAdjust="spacingAndGlyphs" textLength="60" x="264.5" y="621.9102">LCL_TASK</text><line style="stroke: #a80036; stroke-width: 1.5;" x1="209" y1="633" x2="349" y2="633" /><ellipse style="stroke: #038048; stroke-width: 1;" fill="none" cx="219" cy="644" rx="3" ry="3" /><text font-family="sans-serif" font-size="11" fill="#000000" lengthAdjust="spacingAndGlyphs" textLength="69" x="228" y="648.4189">MO_CONTEXT</text><ellipse style="stroke: #038048; stroke-width: 1;" fill="none" cx="219" cy="657.836" rx="3" ry="3" /><text font-family="sans-serif" font-size="11" fill="#000000" lengthAdjust="spacingAndGlyphs" textLength="42" x="228" y="662.2549">MV_RES</text><line style="stroke: #a80036; stroke-width: 1.5;" x1="209" y1="668.672" x2="349" y2="668.672" /><ellipse style="stroke: #038048; stroke-width: 1;" fill="#84be84" cx="219" cy="679.672" rx="3" ry="3" /><text font-family="sans-serif" font-size="11" fill="#000000" lengthAdjust="spacingAndGlyphs" textLength="85" x="228" y="684.0908">CONSTRUCTOR()</text><ellipse style="stroke: #038048; stroke-width: 1;" fill="#84be84" cx="219" cy="693.508" rx="3" ry="3" /><text font-family="sans-serif" font-size="11" fill="#000000" lengthAdjust="spacingAndGlyphs" textLength="116" x="228" y="697.9268">ZIF_CALLABLE~CALL()</text><!--MD5=[dc22c7a4b7e76a0007c4566e0195f84d]
class PROG::ZCONCURRENCY_API_EXAMPLE::LCL_RESULT--><rect id="PROG::ZCONCURRENCY_API_EXAMPLE::LCL_RESULT" style="stroke: #a80036; stroke-width: 1.5;" fill="#fefece" x="361.5" y="437.5" width="111" height="75.6719" codeline="120" /><ellipse style="stroke: #a80036; stroke-width: 1;" fill="#add1b2" cx="376.95" cy="453.5" rx="11" ry="11" /><path fill="#000000" d="M 379.716 449.375 Q 379.872 449.156 380.059 449.047 Q 380.247 448.938 380.466 448.938 Q 380.841 448.938 381.075 449.195 Q 381.309 449.453 381.309 450.063 L 381.309 451.516 Q 381.309 452.125 381.075 452.391 Q 380.841 452.656 380.466 452.656 Q 380.122 452.656 379.919 452.453 Q 379.716 452.266 379.606 451.75 Q 379.559 451.391 379.372 451.203 Q 379.044 450.828 378.434 450.609 Q 377.825 450.391 377.2 450.391 Q 376.434 450.391 375.802 450.719 Q 375.169 451.047 374.677 451.797 Q 374.184 452.547 374.184 453.578 L 374.184 454.672 Q 374.184 455.906 375.075 456.727 Q 375.966 457.547 377.559 457.547 Q 378.497 457.547 379.153 457.297 Q 379.544 457.141 379.966 456.703 Q 380.231 456.438 380.38 456.359 Q 380.528 456.281 380.731 456.281 Q 381.059 456.281 381.317 456.539 Q 381.575 456.797 381.575 457.141 Q 381.575 457.484 381.231 457.891 Q 380.731 458.469 379.934 458.797 Q 378.856 459.25 377.559 459.25 Q 376.044 459.25 374.841 458.625 Q 373.856 458.125 373.169 457.055 Q 372.481 455.984 372.481 454.703 L 372.481 453.547 Q 372.481 452.219 373.098 451.07 Q 373.716 449.922 374.809 449.305 Q 375.903 448.688 377.138 448.688 Q 377.872 448.688 378.52 448.852 Q 379.169 449.016 379.716 449.375 Z" /><text font-family="sans-serif" font-size="12" fill="#000000" lengthAdjust="spacingAndGlyphs" textLength="78" x="391.05" y="458.4102">LCL_RESULT</text><line style="stroke: #a80036; stroke-width: 1.5;" x1="362.5" y1="469.5" x2="471.5" y2="469.5" /><line style="stroke: #a80036; stroke-width: 1.5;" x1="362.5" y1="477.5" x2="471.5" y2="477.5" /><ellipse style="stroke: #038048; stroke-width: 1;" fill="#84be84" cx="372.5" cy="488.5" rx="3" ry="3" /><text font-family="sans-serif" font-size="11" fill="#000000" lengthAdjust="spacingAndGlyphs" textLength="85" x="381.5" y="492.9189">CONSTRUCTOR()</text><ellipse style="stroke: #038048; stroke-width: 1;" fill="#84be84" cx="372.5" cy="502.336" rx="3" ry="3" /><text font-family="sans-serif" font-size="11" fill="#000000" lengthAdjust="spacingAndGlyphs" textLength="28" x="381.5" y="506.7549">GET()</text><!--MD5=[d6b7a99150886aa460421c7b4eef13a9]
class ZCL_ABSTRACT_TASK--><rect id="ZCL_ABSTRACT_TASK" style="stroke: #a80036; stroke-width: 1.5;" fill="#fefece" x="9" y="410" width="164" height="131.016" codeline="3" /><ellipse style="stroke: #a80036; stroke-width: 1;" fill="#a9dcdf" cx="24" cy="426" rx="11" ry="11" /><path fill="#000000" d="M 26.1875 427.766 L 22.0469 427.766 L 21.625 428.797 L 22.0469 428.797 Q 22.6563 428.797 22.9219 429.031 Q 23.1875 429.266 23.1875 429.656 Q 23.1875 430.031 22.9219 430.266 Q 22.6563 430.5 22.0469 430.5 L 19.75 430.5 Q 19.1406 430.5 18.8828 430.266 Q 18.625 430.031 18.625 429.641 Q 18.625 429.266 18.8984 429.023 Q 19.1719 428.781 19.7969 428.797 L 22.4688 422.141 L 21.3594 422.141 Q 20.75 422.141 20.4844 421.906 Q 20.2188 421.672 20.2188 421.281 Q 20.2188 420.906 20.4844 420.672 Q 20.75 420.438 21.3594 420.438 L 25.0313 420.438 L 28.4219 428.797 Q 29.0156 428.797 29.2031 428.938 Q 29.5938 429.203 29.5938 429.656 Q 29.5938 430.031 29.3359 430.266 Q 29.0781 430.5 28.4688 430.5 L 26.1719 430.5 Q 25.5625 430.5 25.2969 430.266 Q 25.0313 430.031 25.0313 429.641 Q 25.0313 429.266 25.2969 429.031 Q 25.5625 428.797 26.1719 428.797 L 26.5938 428.797 L 26.1875 427.766 Z M 25.4688 426.063 L 24.1094 422.688 L 22.7344 426.063 L 25.4688 426.063 Z" /><text font-family="sans-serif" font-size="12" font-style="italic" fill="#000000" lengthAdjust="spacingAndGlyphs" textLength="132" x="38" y="430.9102">ZCL_ABSTRACT_TASK</text><line style="stroke: #a80036; stroke-width: 1.5;" x1="10" y1="442" x2="172" y2="442" /><polygon style="stroke: #b38d22; stroke-width: 1;" fill="none" points="20,448 24,452 20,456 16,452" /><text font-family="sans-serif" font-size="11" fill="#000000" lengthAdjust="spacingAndGlyphs" textLength="31" x="29" y="457.4189">MV_ID</text><polygon style="stroke: #b38d22; stroke-width: 1;" fill="none" points="20,461.836 24,465.836 20,469.836 16,465.836" /><text font-family="sans-serif" font-size="11" fill="#000000" lengthAdjust="spacingAndGlyphs" textLength="51" x="29" y="471.2549">MV_NAME</text><polygon style="stroke: #b38d22; stroke-width: 1;" fill="none" points="20,475.672 24,479.672 20,483.672 16,479.672" /><text font-family="sans-serif" font-size="11" fill="#000000" lengthAdjust="spacingAndGlyphs" textLength="104" x="29" y="485.0908">MV_TASK_COUNTER</text><line style="stroke: #a80036; stroke-width: 1.5;" x1="10" y1="491.508" x2="172" y2="491.508" /><polygon style="stroke: #b38d22; stroke-width: 1;" fill="#ffff44" points="20,497.508 24,501.508 20,505.508 16,501.508" /><text font-family="sans-serif" font-size="11" fill="#000000" lengthAdjust="spacingAndGlyphs" textLength="97" x="29" y="506.9268">CREATE_TASK_ID()</text><polygon style="stroke: #b38d22; stroke-width: 1;" fill="#ffff44" points="20,511.344 24,515.344 20,519.344 16,515.344" /><text font-family="sans-serif" font-size="11" fill="#000000" lengthAdjust="spacingAndGlyphs" textLength="117" x="29" y="520.7627">CREATE_TASK_NAME()</text><ellipse style="stroke: #038048; stroke-width: 1;" fill="#84be84" cx="20" cy="530.18" rx="3" ry="3" /><text font-family="sans-serif" font-size="11" fill="#000000" lengthAdjust="spacingAndGlyphs" textLength="85" x="29" y="534.5986">CONSTRUCTOR()</text><!--MD5=[5df7616d962c8509fad025015bf00372]
class ZIF_TASK--><rect id="ZIF_TASK" style="stroke: #a80036; stroke-width: 1.5;" fill="#fefece" x="46.5" y="253.5" width="89" height="75.6719" codeline="83" /><ellipse style="stroke: #a80036; stroke-width: 1;" fill="#b4a7e5" cx="61.95" cy="269.5" rx="11" ry="11" /><path fill="#000000" d="M 62.9031 266.141 L 62.9031 272.797 L 64.6219 272.797 Q 65.2313 272.797 65.4969 273.031 Q 65.7625 273.266 65.7625 273.656 Q 65.7625 274.031 65.4969 274.266 Q 65.2313 274.5 64.6219 274.5 L 59.4813 274.5 Q 58.8719 274.5 58.6063 274.266 Q 58.3406 274.031 58.3406 273.641 Q 58.3406 273.266 58.6063 273.031 Q 58.8719 272.797 59.4813 272.797 L 61.2 272.797 L 61.2 266.141 L 59.4813 266.141 Q 58.8719 266.141 58.6063 265.906 Q 58.3406 265.672 58.3406 265.281 Q 58.3406 264.906 58.6063 264.672 Q 58.8719 264.438 59.4813 264.438 L 64.6219 264.438 Q 65.2313 264.438 65.4969 264.672 Q 65.7625 264.906 65.7625 265.281 Q 65.7625 265.672 65.4969 265.906 Q 65.2313 266.141 64.6219 266.141 L 62.9031 266.141 Z" /><text font-family="sans-serif" font-size="12" font-style="italic" fill="#000000" lengthAdjust="spacingAndGlyphs" textLength="56" x="76.05" y="274.4102">ZIF_TASK</text><line style="stroke: #a80036; stroke-width: 1.5;" x1="47.5" y1="285.5" x2="134.5" y2="285.5" /><line style="stroke: #a80036; stroke-width: 1.5;" x1="47.5" y1="293.5" x2="134.5" y2="293.5" /><ellipse style="stroke: #038048; stroke-width: 1;" fill="#84be84" cx="57.5" cy="304.5" rx="3" ry="3" /><text font-family="sans-serif" font-size="11" fill="#000000" lengthAdjust="spacingAndGlyphs" textLength="43" x="66.5" y="308.9189">GET_ID()</text><ellipse style="stroke: #038048; stroke-width: 1;" fill="#84be84" cx="57.5" cy="318.336" rx="3" ry="3" /><text font-family="sans-serif" font-size="11" fill="#000000" lengthAdjust="spacingAndGlyphs" textLength="63" x="66.5" y="322.7549">GET_NAME()</text><!--MD5=[4b8323a29be05d1ff972273dde1eefff]
class ZCL_COLLECTION--><rect id="ZCL_COLLECTION" style="stroke: #a80036; stroke-width: 1.5;" fill="#fefece" x="598.5" y="260.5" width="139" height="61.8359" codeline="13" /><ellipse style="stroke: #a80036; stroke-width: 1;" fill="#add1b2" cx="613.5" cy="276.5" rx="11" ry="11" /><path fill="#000000" d="M 616.266 272.375 Q 616.422 272.156 616.609 272.047 Q 616.797 271.938 617.016 271.938 Q 617.391 271.938 617.625 272.195 Q 617.859 272.453 617.859 273.063 L 617.859 274.516 Q 617.859 275.125 617.625 275.391 Q 617.391 275.656 617.016 275.656 Q 616.672 275.656 616.469 275.453 Q 616.266 275.266 616.156 274.75 Q 616.109 274.391 615.922 274.203 Q 615.594 273.828 614.984 273.609 Q 614.375 273.391 613.75 273.391 Q 612.984 273.391 612.352 273.719 Q 611.719 274.047 611.227 274.797 Q 610.734 275.547 610.734 276.578 L 610.734 277.672 Q 610.734 278.906 611.625 279.727 Q 612.516 280.547 614.109 280.547 Q 615.047 280.547 615.703 280.297 Q 616.094 280.141 616.516 279.703 Q 616.781 279.438 616.93 279.359 Q 617.078 279.281 617.281 279.281 Q 617.609 279.281 617.867 279.539 Q 618.125 279.797 618.125 280.141 Q 618.125 280.484 617.781 280.891 Q 617.281 281.469 616.484 281.797 Q 615.406 282.25 614.109 282.25 Q 612.594 282.25 611.391 281.625 Q 610.406 281.125 609.719 280.055 Q 609.031 278.984 609.031 277.703 L 609.031 276.547 Q 609.031 275.219 609.648 274.07 Q 610.266 272.922 611.359 272.305 Q 612.453 271.688 613.688 271.688 Q 614.422 271.688 615.07 271.852 Q 615.719 272.016 616.266 272.375 Z" /><text font-family="sans-serif" font-size="12" fill="#000000" lengthAdjust="spacingAndGlyphs" textLength="107" x="627.5" y="281.4102">ZCL_COLLECTION</text><line style="stroke: #a80036; stroke-width: 1.5;" x1="599.5" y1="292.5" x2="736.5" y2="292.5" /><polygon style="stroke: #b38d22; stroke-width: 1;" fill="none" points="609.5,298.5 613.5,302.5 609.5,306.5 605.5,302.5" /><text font-family="sans-serif" font-size="11" fill="#000000" lengthAdjust="spacingAndGlyphs" textLength="83" x="618.5" y="307.9189">MT_COLLECTION</text><line style="stroke: #a80036; stroke-width: 1.5;" x1="599.5" y1="314.336" x2="736.5" y2="314.336" /><!--MD5=[a96574e9278e74168dba38f964757abd]
class ZIF_COLLECTION--><rect id="ZIF_COLLECTION" style="stroke: #a80036; stroke-width: 1.5;" fill="#fefece" x="600.5" y="14" width="135" height="158.688" codeline="57" /><ellipse style="stroke: #a80036; stroke-width: 1;" fill="#b4a7e5" cx="615.5" cy="30" rx="11" ry="11" /><path fill="#000000" d="M 616.453 26.6406 L 616.453 33.2969 L 618.172 33.2969 Q 618.781 33.2969 619.047 33.5313 Q 619.313 33.7656 619.313 34.1563 Q 619.313 34.5313 619.047 34.7656 Q 618.781 35 618.172 35 L 613.031 35 Q 612.422 35 612.156 34.7656 Q 611.891 34.5313 611.891 34.1406 Q 611.891 33.7656 612.156 33.5313 Q 612.422 33.2969 613.031 33.2969 L 614.75 33.2969 L 614.75 26.6406 L 613.031 26.6406 Q 612.422 26.6406 612.156 26.4063 Q 611.891 26.1719 611.891 25.7813 Q 611.891 25.4063 612.156 25.1719 Q 612.422 24.9375 613.031 24.9375 L 618.172 24.9375 Q 618.781 24.9375 619.047 25.1719 Q 619.313 25.4063 619.313 25.7813 Q 619.313 26.1719 619.047 26.4063 Q 618.781 26.6406 618.172 26.6406 L 616.453 26.6406 Z" /><text font-family="sans-serif" font-size="12" font-style="italic" fill="#000000" lengthAdjust="spacingAndGlyphs" textLength="103" x="629.5" y="34.9102">ZIF_COLLECTION</text><line style="stroke: #a80036; stroke-width: 1.5;" x1="601.5" y1="46" x2="734.5" y2="46" /><line style="stroke: #a80036; stroke-width: 1.5;" x1="601.5" y1="54" x2="734.5" y2="54" /><ellipse style="stroke: #038048; stroke-width: 1;" fill="#84be84" cx="611.5" cy="65" rx="3" ry="3" /><text font-family="sans-serif" font-size="11" fill="#000000" lengthAdjust="spacingAndGlyphs" textLength="30" x="620.5" y="69.4189">ADD()</text><ellipse style="stroke: #038048; stroke-width: 1;" fill="#84be84" cx="611.5" cy="78.8359" rx="3" ry="3" /><text font-family="sans-serif" font-size="11" fill="#000000" lengthAdjust="spacingAndGlyphs" textLength="42" x="620.5" y="83.2549">CLEAR()</text><ellipse style="stroke: #038048; stroke-width: 1;" fill="#84be84" cx="611.5" cy="92.6719" rx="3" ry="3" /><text font-family="sans-serif" font-size="11" fill="#000000" lengthAdjust="spacingAndGlyphs" textLength="56" x="620.5" y="97.0908">GET_ITEM()</text><ellipse style="stroke: #038048; stroke-width: 1;" fill="#84be84" cx="611.5" cy="106.508" rx="3" ry="3" /><text font-family="sans-serif" font-size="11" fill="#000000" lengthAdjust="spacingAndGlyphs" textLength="84" x="620.5" y="110.9268">GET_ITERATOR()</text><ellipse style="stroke: #038048; stroke-width: 1;" fill="#84be84" cx="611.5" cy="120.344" rx="3" ry="3" /><text font-family="sans-serif" font-size="11" fill="#000000" lengthAdjust="spacingAndGlyphs" textLength="57" x="620.5" y="124.7627">IS_EMPTY()</text><ellipse style="stroke: #038048; stroke-width: 1;" fill="#84be84" cx="611.5" cy="134.18" rx="3" ry="3" /><text font-family="sans-serif" font-size="11" fill="#000000" lengthAdjust="spacingAndGlyphs" textLength="51" x="620.5" y="138.5986">REMOVE()</text><ellipse style="stroke: #038048; stroke-width: 1;" fill="#84be84" cx="611.5" cy="148.016" rx="3" ry="3" /><text font-family="sans-serif" font-size="11" fill="#000000" lengthAdjust="spacingAndGlyphs" textLength="86" x="620.5" y="152.4346">REMOVE_INDEX()</text><ellipse style="stroke: #038048; stroke-width: 1;" fill="#84be84" cx="611.5" cy="161.852" rx="3" ry="3" /><text font-family="sans-serif" font-size="11" fill="#000000" lengthAdjust="spacingAndGlyphs" textLength="30" x="620.5" y="166.2705">SIZE()</text><!--MD5=[83e82ee43a212ecf3514311a807d9bcb]
class ZCL_EXECUTOR_SERVICE--><rect id="ZCL_EXECUTOR_SERVICE" style="stroke: #a80036; stroke-width: 1.5;" fill="#fefece" x="1303.5" y="444.5" width="187" height="61.8359" codeline="18" /><ellipse style="stroke: #a80036; stroke-width: 1;" fill="#add1b2" cx="1318.5" cy="460.5" rx="11" ry="11" /><path fill="#000000" d="M 1321.27 456.375 Q 1321.42 456.156 1321.61 456.047 Q 1321.8 455.938 1322.02 455.938 Q 1322.39 455.938 1322.63 456.195 Q 1322.86 456.453 1322.86 457.063 L 1322.86 458.516 Q 1322.86 459.125 1322.63 459.391 Q 1322.39 459.656 1322.02 459.656 Q 1321.67 459.656 1321.47 459.453 Q 1321.27 459.266 1321.16 458.75 Q 1321.11 458.391 1320.92 458.203 Q 1320.59 457.828 1319.98 457.609 Q 1319.38 457.391 1318.75 457.391 Q 1317.98 457.391 1317.35 457.719 Q 1316.72 458.047 1316.23 458.797 Q 1315.73 459.547 1315.73 460.578 L 1315.73 461.672 Q 1315.73 462.906 1316.63 463.727 Q 1317.52 464.547 1319.11 464.547 Q 1320.05 464.547 1320.7 464.297 Q 1321.09 464.141 1321.52 463.703 Q 1321.78 463.438 1321.93 463.359 Q 1322.08 463.281 1322.28 463.281 Q 1322.61 463.281 1322.87 463.539 Q 1323.13 463.797 1323.13 464.141 Q 1323.13 464.484 1322.78 464.891 Q 1322.28 465.469 1321.48 465.797 Q 1320.41 466.25 1319.11 466.25 Q 1317.59 466.25 1316.39 465.625 Q 1315.41 465.125 1314.72 464.055 Q 1314.03 462.984 1314.03 461.703 L 1314.03 460.547 Q 1314.03 459.219 1314.65 458.07 Q 1315.27 456.922 1316.36 456.305 Q 1317.45 455.688 1318.69 455.688 Q 1319.42 455.688 1320.07 455.852 Q 1320.72 456.016 1321.27 456.375 Z" /><text font-family="sans-serif" font-size="12" fill="#000000" lengthAdjust="spacingAndGlyphs" textLength="155" x="1332.5" y="465.4102">ZCL_EXECUTOR_SERVICE</text><line style="stroke: #a80036; stroke-width: 1.5;" x1="1304.5" y1="476.5" x2="1489.5" y2="476.5" /><line style="stroke: #a80036; stroke-width: 1.5;" x1="1304.5" y1="484.5" x2="1489.5" y2="484.5" /><ellipse style="stroke: #038048; stroke-width: 1;" fill="#84be84" cx="1314.5" cy="495.5" rx="3" ry="3" /><text font-family="sans-serif" font-size="11" fill="#000000" lengthAdjust="spacingAndGlyphs" textLength="85" x="1323.5" y="499.9189">CONSTRUCTOR()</text><!--MD5=[81021ef0204e0555860e8c3aa97d8cd2]
class ZIF_EXECUTOR_SERVICE--><rect id="ZIF_EXECUTOR_SERVICE" style="stroke: #a80036; stroke-width: 1.5;" fill="#fefece" x="1304.5" y="260.5" width="185" height="61.8359" codeline="70" /><ellipse style="stroke: #a80036; stroke-width: 1;" fill="#b4a7e5" cx="1319.5" cy="276.5" rx="11" ry="11" /><path fill="#000000" d="M 1320.45 273.141 L 1320.45 279.797 L 1322.17 279.797 Q 1322.78 279.797 1323.05 280.031 Q 1323.31 280.266 1323.31 280.656 Q 1323.31 281.031 1323.05 281.266 Q 1322.78 281.5 1322.17 281.5 L 1317.03 281.5 Q 1316.42 281.5 1316.16 281.266 Q 1315.89 281.031 1315.89 280.641 Q 1315.89 280.266 1316.16 280.031 Q 1316.42 279.797 1317.03 279.797 L 1318.75 279.797 L 1318.75 273.141 L 1317.03 273.141 Q 1316.42 273.141 1316.16 272.906 Q 1315.89 272.672 1315.89 272.281 Q 1315.89 271.906 1316.16 271.672 Q 1316.42 271.438 1317.03 271.438 L 1322.17 271.438 Q 1322.78 271.438 1323.05 271.672 Q 1323.31 271.906 1323.31 272.281 Q 1323.31 272.672 1323.05 272.906 Q 1322.78 273.141 1322.17 273.141 L 1320.45 273.141 Z" /><text font-family="sans-serif" font-size="12" font-style="italic" fill="#000000" lengthAdjust="spacingAndGlyphs" textLength="153" x="1333.5" y="281.4102">ZIF_EXECUTOR_SERVICE</text><line style="stroke: #a80036; stroke-width: 1.5;" x1="1305.5" y1="292.5" x2="1488.5" y2="292.5" /><line style="stroke: #a80036; stroke-width: 1.5;" x1="1305.5" y1="300.5" x2="1488.5" y2="300.5" /><ellipse style="stroke: #038048; stroke-width: 1;" fill="#84be84" cx="1315.5" cy="311.5" rx="3" ry="3" /><text font-family="sans-serif" font-size="11" fill="#000000" lengthAdjust="spacingAndGlyphs" textLength="72" x="1324.5" y="315.9189">INVOKE_ALL()</text><!--MD5=[9841477b72daa0039f34c7f1e71453b5]
class ZCL_ITERATOR--><rect id="ZCL_ITERATOR" style="stroke: #a80036; stroke-width: 1.5;" fill="#fefece" x="442.5" y="260.5" width="121" height="61.8359" codeline="23" /><ellipse style="stroke: #a80036; stroke-width: 1;" fill="#add1b2" cx="457.5" cy="276.5" rx="11" ry="11" /><path fill="#000000" d="M 460.266 272.375 Q 460.422 272.156 460.609 272.047 Q 460.797 271.938 461.016 271.938 Q 461.391 271.938 461.625 272.195 Q 461.859 272.453 461.859 273.063 L 461.859 274.516 Q 461.859 275.125 461.625 275.391 Q 461.391 275.656 461.016 275.656 Q 460.672 275.656 460.469 275.453 Q 460.266 275.266 460.156 274.75 Q 460.109 274.391 459.922 274.203 Q 459.594 273.828 458.984 273.609 Q 458.375 273.391 457.75 273.391 Q 456.984 273.391 456.352 273.719 Q 455.719 274.047 455.227 274.797 Q 454.734 275.547 454.734 276.578 L 454.734 277.672 Q 454.734 278.906 455.625 279.727 Q 456.516 280.547 458.109 280.547 Q 459.047 280.547 459.703 280.297 Q 460.094 280.141 460.516 279.703 Q 460.781 279.438 460.93 279.359 Q 461.078 279.281 461.281 279.281 Q 461.609 279.281 461.867 279.539 Q 462.125 279.797 462.125 280.141 Q 462.125 280.484 461.781 280.891 Q 461.281 281.469 460.484 281.797 Q 459.406 282.25 458.109 282.25 Q 456.594 282.25 455.391 281.625 Q 454.406 281.125 453.719 280.055 Q 453.031 278.984 453.031 277.703 L 453.031 276.547 Q 453.031 275.219 453.648 274.07 Q 454.266 272.922 455.359 272.305 Q 456.453 271.688 457.688 271.688 Q 458.422 271.688 459.07 271.852 Q 459.719 272.016 460.266 272.375 Z" /><text font-family="sans-serif" font-size="12" fill="#000000" lengthAdjust="spacingAndGlyphs" textLength="89" x="471.5" y="281.4102">ZCL_ITERATOR</text><line style="stroke: #a80036; stroke-width: 1.5;" x1="443.5" y1="292.5" x2="562.5" y2="292.5" /><line style="stroke: #a80036; stroke-width: 1.5;" x1="443.5" y1="300.5" x2="562.5" y2="300.5" /><ellipse style="stroke: #038048; stroke-width: 1;" fill="#84be84" cx="453.5" cy="311.5" rx="3" ry="3" /><text font-family="sans-serif" font-size="11" fill="#000000" lengthAdjust="spacingAndGlyphs" textLength="85" x="462.5" y="315.9189">CONSTRUCTOR()</text><!--MD5=[97d1fa6ec66cbf277e6cb26f2e1eceee]
class ZIF_ITERATOR--><rect id="ZIF_ITERATOR" style="stroke: #a80036; stroke-width: 1.5;" fill="#fefece" x="444" y="28" width="118" height="131.016" codeline="74" /><ellipse style="stroke: #a80036; stroke-width: 1;" fill="#b4a7e5" cx="459" cy="44" rx="11" ry="11" /><path fill="#000000" d="M 459.953 40.6406 L 459.953 47.2969 L 461.672 47.2969 Q 462.281 47.2969 462.547 47.5313 Q 462.813 47.7656 462.813 48.1563 Q 462.813 48.5313 462.547 48.7656 Q 462.281 49 461.672 49 L 456.531 49 Q 455.922 49 455.656 48.7656 Q 455.391 48.5313 455.391 48.1406 Q 455.391 47.7656 455.656 47.5313 Q 455.922 47.2969 456.531 47.2969 L 458.25 47.2969 L 458.25 40.6406 L 456.531 40.6406 Q 455.922 40.6406 455.656 40.4063 Q 455.391 40.1719 455.391 39.7813 Q 455.391 39.4063 455.656 39.1719 Q 455.922 38.9375 456.531 38.9375 L 461.672 38.9375 Q 462.281 38.9375 462.547 39.1719 Q 462.813 39.4063 462.813 39.7813 Q 462.813 40.1719 462.547 40.4063 Q 462.281 40.6406 461.672 40.6406 L 459.953 40.6406 Z" /><text font-family="sans-serif" font-size="12" font-style="italic" fill="#000000" lengthAdjust="spacingAndGlyphs" textLength="86" x="473" y="48.9102">ZIF_ITERATOR</text><line style="stroke: #a80036; stroke-width: 1.5;" x1="445" y1="60" x2="561" y2="60" /><line style="stroke: #a80036; stroke-width: 1.5;" x1="445" y1="68" x2="561" y2="68" /><ellipse style="stroke: #038048; stroke-width: 1;" fill="#84be84" cx="455" cy="79" rx="3" ry="3" /><text font-family="sans-serif" font-size="11" fill="#000000" lengthAdjust="spacingAndGlyphs" textLength="55" x="464" y="83.4189">CURRENT()</text><ellipse style="stroke: #038048; stroke-width: 1;" fill="#84be84" cx="455" cy="92.8359" rx="3" ry="3" /><text font-family="sans-serif" font-size="11" fill="#000000" lengthAdjust="spacingAndGlyphs" textLength="36" x="464" y="97.2549">FIRST()</text><ellipse style="stroke: #038048; stroke-width: 1;" fill="#84be84" cx="455" cy="106.672" rx="3" ry="3" /><text font-family="sans-serif" font-size="11" fill="#000000" lengthAdjust="spacingAndGlyphs" textLength="63" x="464" y="111.0908">GET_INDEX()</text><ellipse style="stroke: #038048; stroke-width: 1;" fill="#84be84" cx="455" cy="120.508" rx="3" ry="3" /><text font-family="sans-serif" font-size="11" fill="#000000" lengthAdjust="spacingAndGlyphs" textLength="62" x="464" y="124.9268">HAS_NEXT()</text><ellipse style="stroke: #038048; stroke-width: 1;" fill="#84be84" cx="455" cy="134.344" rx="3" ry="3" /><text font-family="sans-serif" font-size="11" fill="#000000" lengthAdjust="spacingAndGlyphs" textLength="35" x="464" y="138.7627">LAST()</text><ellipse style="stroke: #038048; stroke-width: 1;" fill="#84be84" cx="455" cy="148.18" rx="3" ry="3" /><text font-family="sans-serif" font-size="11" fill="#000000" lengthAdjust="spacingAndGlyphs" textLength="34" x="464" y="152.5986">NEXT()</text><!--MD5=[7d65204dfac9d793e8c81b7d4b45cee7]
class ZCL_MESSAGE_HANDLER--><rect id="ZCL_MESSAGE_HANDLER" style="stroke: #a80036; stroke-width: 1.5;" fill="#fefece" x="1014" y="260.5" width="184" height="61.8359" codeline="28" /><ellipse style="stroke: #a80036; stroke-width: 1;" fill="#add1b2" cx="1029" cy="276.5" rx="11" ry="11" /><path fill="#000000" d="M 1031.77 272.375 Q 1031.92 272.156 1032.11 272.047 Q 1032.3 271.938 1032.52 271.938 Q 1032.89 271.938 1033.13 272.195 Q 1033.36 272.453 1033.36 273.063 L 1033.36 274.516 Q 1033.36 275.125 1033.13 275.391 Q 1032.89 275.656 1032.52 275.656 Q 1032.17 275.656 1031.97 275.453 Q 1031.77 275.266 1031.66 274.75 Q 1031.61 274.391 1031.42 274.203 Q 1031.09 273.828 1030.48 273.609 Q 1029.88 273.391 1029.25 273.391 Q 1028.48 273.391 1027.85 273.719 Q 1027.22 274.047 1026.73 274.797 Q 1026.23 275.547 1026.23 276.578 L 1026.23 277.672 Q 1026.23 278.906 1027.13 279.727 Q 1028.02 280.547 1029.61 280.547 Q 1030.55 280.547 1031.2 280.297 Q 1031.59 280.141 1032.02 279.703 Q 1032.28 279.438 1032.43 279.359 Q 1032.58 279.281 1032.78 279.281 Q 1033.11 279.281 1033.37 279.539 Q 1033.63 279.797 1033.63 280.141 Q 1033.63 280.484 1033.28 280.891 Q 1032.78 281.469 1031.98 281.797 Q 1030.91 282.25 1029.61 282.25 Q 1028.09 282.25 1026.89 281.625 Q 1025.91 281.125 1025.22 280.055 Q 1024.53 278.984 1024.53 277.703 L 1024.53 276.547 Q 1024.53 275.219 1025.15 274.07 Q 1025.77 272.922 1026.86 272.305 Q 1027.95 271.688 1029.19 271.688 Q 1029.92 271.688 1030.57 271.852 Q 1031.22 272.016 1031.77 272.375 Z" /><text font-family="sans-serif" font-size="12" fill="#000000" lengthAdjust="spacingAndGlyphs" textLength="152" x="1043" y="281.4102">ZCL_MESSAGE_HANDLER</text><line style="stroke: #a80036; stroke-width: 1.5;" x1="1015" y1="292.5" x2="1197" y2="292.5" /><line style="stroke: #a80036; stroke-width: 1.5;" x1="1015" y1="300.5" x2="1197" y2="300.5" /><ellipse style="stroke: #038048; stroke-width: 1;" fill="#84be84" cx="1025" cy="311.5" rx="3" ry="3" /><text font-family="sans-serif" font-size="11" fill="#000000" lengthAdjust="spacingAndGlyphs" textLength="93" x="1034" y="315.9189">HAS_MESSAGES()</text><!--MD5=[00e8f18af7dde6b0629b5e2620b9cafa]
class ZIF_MESSAGE_HANDLER--><rect id="ZIF_MESSAGE_HANDLER" style="stroke: #a80036; stroke-width: 1.5;" fill="#fefece" x="1087.5" y="55.5" width="181" height="75.6719" codeline="97" /><ellipse style="stroke: #a80036; stroke-width: 1;" fill="#b4a7e5" cx="1102.5" cy="71.5" rx="11" ry="11" /><path fill="#000000" d="M 1103.45 68.1406 L 1103.45 74.7969 L 1105.17 74.7969 Q 1105.78 74.7969 1106.05 75.0313 Q 1106.31 75.2656 1106.31 75.6563 Q 1106.31 76.0313 1106.05 76.2656 Q 1105.78 76.5 1105.17 76.5 L 1100.03 76.5 Q 1099.42 76.5 1099.16 76.2656 Q 1098.89 76.0313 1098.89 75.6406 Q 1098.89 75.2656 1099.16 75.0313 Q 1099.42 74.7969 1100.03 74.7969 L 1101.75 74.7969 L 1101.75 68.1406 L 1100.03 68.1406 Q 1099.42 68.1406 1099.16 67.9063 Q 1098.89 67.6719 1098.89 67.2813 Q 1098.89 66.9063 1099.16 66.6719 Q 1099.42 66.4375 1100.03 66.4375 L 1105.17 66.4375 Q 1105.78 66.4375 1106.05 66.6719 Q 1106.31 66.9063 1106.31 67.2813 Q 1106.31 67.6719 1106.05 67.9063 Q 1105.78 68.1406 1105.17 68.1406 L 1103.45 68.1406 Z" /><text font-family="sans-serif" font-size="12" font-style="italic" fill="#000000" lengthAdjust="spacingAndGlyphs" textLength="149" x="1116.5" y="76.4102">ZIF_MESSAGE_HANDLER</text><line style="stroke: #a80036; stroke-width: 1.5;" x1="1088.5" y1="87.5" x2="1267.5" y2="87.5" /><line style="stroke: #a80036; stroke-width: 1.5;" x1="1088.5" y1="95.5" x2="1267.5" y2="95.5" /><ellipse style="stroke: #038048; stroke-width: 1;" fill="#84be84" cx="1098.5" cy="106.5" rx="3" ry="3" /><text font-family="sans-serif" font-size="11" fill="#000000" lengthAdjust="spacingAndGlyphs" textLength="86" x="1107.5" y="110.9189">ADD_MESSAGE()</text><ellipse style="stroke: #038048; stroke-width: 1;" fill="#84be84" cx="1098.5" cy="120.336" rx="3" ry="3" /><text font-family="sans-serif" font-size="11" fill="#000000" lengthAdjust="spacingAndGlyphs" textLength="111" x="1107.5" y="124.7549">GET_MESSAGE_LIST()</text><!--MD5=[750da4acd1ddb987a116311264f60760]
class ZCL_SPTA_GATEWAY--><rect id="ZCL_SPTA_GATEWAY" style="stroke: #a80036; stroke-width: 1.5;" fill="#fefece" x="773" y="233" width="206" height="117.18" codeline="33" /><ellipse style="stroke: #a80036; stroke-width: 1;" fill="#add1b2" cx="810.95" cy="249" rx="11" ry="11" /><path fill="#000000" d="M 813.716 244.875 Q 813.872 244.656 814.059 244.547 Q 814.247 244.438 814.466 244.438 Q 814.841 244.438 815.075 244.695 Q 815.309 244.953 815.309 245.563 L 815.309 247.016 Q 815.309 247.625 815.075 247.891 Q 814.841 248.156 814.466 248.156 Q 814.122 248.156 813.919 247.953 Q 813.716 247.766 813.606 247.25 Q 813.559 246.891 813.372 246.703 Q 813.044 246.328 812.434 246.109 Q 811.825 245.891 811.2 245.891 Q 810.434 245.891 809.802 246.219 Q 809.169 246.547 808.677 247.297 Q 808.184 248.047 808.184 249.078 L 808.184 250.172 Q 808.184 251.406 809.075 252.227 Q 809.966 253.047 811.559 253.047 Q 812.497 253.047 813.153 252.797 Q 813.544 252.641 813.966 252.203 Q 814.231 251.938 814.38 251.859 Q 814.528 251.781 814.731 251.781 Q 815.059 251.781 815.317 252.039 Q 815.575 252.297 815.575 252.641 Q 815.575 252.984 815.231 253.391 Q 814.731 253.969 813.934 254.297 Q 812.856 254.75 811.559 254.75 Q 810.044 254.75 808.841 254.125 Q 807.856 253.625 807.169 252.555 Q 806.481 251.484 806.481 250.203 L 806.481 249.047 Q 806.481 247.719 807.098 246.57 Q 807.716 245.422 808.809 244.805 Q 809.903 244.188 811.138 244.188 Q 811.872 244.188 812.52 244.352 Q 813.169 244.516 813.716 244.875 Z" /><text font-family="sans-serif" font-size="12" fill="#000000" lengthAdjust="spacingAndGlyphs" textLength="123" x="830.05" y="253.9102">ZCL_SPTA_GATEWAY</text><line style="stroke: #a80036; stroke-width: 1.5;" x1="774" y1="265" x2="978" y2="265" /><ellipse style="stroke: #038048; stroke-width: 1;" fill="none" cx="784" cy="276" rx="3" ry="3" /><text font-family="sans-serif" font-size="11" fill="#000000" lengthAdjust="spacingAndGlyphs" textLength="126" x="793" y="280.4189">MO_MESSAGE_HANDLER</text><ellipse style="stroke: #038048; stroke-width: 1;" fill="none" cx="784" cy="289.836" rx="3" ry="3" /><text font-family="sans-serif" font-size="11" fill="#000000" lengthAdjust="spacingAndGlyphs" textLength="68" x="793" y="294.2549">MO_RESULTS</text><ellipse style="stroke: #038048; stroke-width: 1;" fill="none" cx="784" cy="303.672" rx="3" ry="3" /><text font-family="sans-serif" font-size="11" fill="#000000" lengthAdjust="spacingAndGlyphs" textLength="57" x="793" y="308.0908">MO_TASKS</text><ellipse style="stroke: #038048; stroke-width: 1;" fill="none" cx="784" cy="317.508" rx="3" ry="3" /><text font-family="sans-serif" font-size="11" fill="#000000" lengthAdjust="spacingAndGlyphs" textLength="180" x="793" y="321.9268">MV_NO_RESUBMISSION_ON_ERROR</text><line style="stroke: #a80036; stroke-width: 1.5;" x1="774" y1="328.344" x2="978" y2="328.344" /><ellipse style="stroke: #038048; stroke-width: 1;" fill="#84be84" cx="784" cy="339.344" rx="3" ry="3" /><text font-family="sans-serif" font-size="11" fill="#000000" lengthAdjust="spacingAndGlyphs" textLength="85" x="793" y="343.7627">CONSTRUCTOR()</text><!--MD5=[1187b7fc9fbb21af530497e5ef0845df]
class ZCL_SPTA_WRAPPER--><rect id="ZCL_SPTA_WRAPPER" style="stroke: #a80036; stroke-width: 1.5;" fill="#fefece" x="1524.5" y="233" width="159" height="117.18" codeline="41" /><ellipse style="stroke: #a80036; stroke-width: 1;" fill="#add1b2" cx="1539.5" cy="249" rx="11" ry="11" /><path fill="#000000" d="M 1542.27 244.875 Q 1542.42 244.656 1542.61 244.547 Q 1542.8 244.438 1543.02 244.438 Q 1543.39 244.438 1543.63 244.695 Q 1543.86 244.953 1543.86 245.563 L 1543.86 247.016 Q 1543.86 247.625 1543.63 247.891 Q 1543.39 248.156 1543.02 248.156 Q 1542.67 248.156 1542.47 247.953 Q 1542.27 247.766 1542.16 247.25 Q 1542.11 246.891 1541.92 246.703 Q 1541.59 246.328 1540.98 246.109 Q 1540.38 245.891 1539.75 245.891 Q 1538.98 245.891 1538.35 246.219 Q 1537.72 246.547 1537.23 247.297 Q 1536.73 248.047 1536.73 249.078 L 1536.73 250.172 Q 1536.73 251.406 1537.63 252.227 Q 1538.52 253.047 1540.11 253.047 Q 1541.05 253.047 1541.7 252.797 Q 1542.09 252.641 1542.52 252.203 Q 1542.78 251.938 1542.93 251.859 Q 1543.08 251.781 1543.28 251.781 Q 1543.61 251.781 1543.87 252.039 Q 1544.13 252.297 1544.13 252.641 Q 1544.13 252.984 1543.78 253.391 Q 1543.28 253.969 1542.48 254.297 Q 1541.41 254.75 1540.11 254.75 Q 1538.59 254.75 1537.39 254.125 Q 1536.41 253.625 1535.72 252.555 Q 1535.03 251.484 1535.03 250.203 L 1535.03 249.047 Q 1535.03 247.719 1535.65 246.57 Q 1536.27 245.422 1537.36 244.805 Q 1538.45 244.188 1539.69 244.188 Q 1540.42 244.188 1541.07 244.352 Q 1541.72 244.516 1542.27 244.875 Z" /><text font-family="sans-serif" font-size="12" fill="#000000" lengthAdjust="spacingAndGlyphs" textLength="127" x="1553.5" y="253.9102">ZCL_SPTA_WRAPPER</text><line style="stroke: #a80036; stroke-width: 1.5;" x1="1525.5" y1="265" x2="1682.5" y2="265" /><line style="stroke: #a80036; stroke-width: 1.5;" x1="1525.5" y1="273" x2="1682.5" y2="273" /><ellipse style="stroke: #038048; stroke-width: 1;" fill="#84be84" cx="1535.5" cy="284" rx="3" ry="3" /><text font-family="sans-serif" font-size="11" fill="#000000" lengthAdjust="spacingAndGlyphs" textLength="85" x="1544.5" y="288.4189">CONSTRUCTOR()</text><ellipse style="stroke: #038048; stroke-width: 1;" fill="#84be84" cx="1535.5" cy="297.836" rx="3" ry="3" /><text font-family="sans-serif" font-size="11" fill="#000000" lengthAdjust="spacingAndGlyphs" textLength="72" x="1544.5" y="302.2549">DESERIALIZE()</text><ellipse style="stroke: #038048; stroke-width: 1;" fill="#84be84" cx="1535.5" cy="311.672" rx="3" ry="3" /><text font-family="sans-serif" font-size="11" fill="#000000" lengthAdjust="spacingAndGlyphs" textLength="124" x="1544.5" y="316.0908">PROGRESS_INDICATOR()</text><ellipse style="stroke: #038048; stroke-width: 1;" fill="#84be84" cx="1535.5" cy="325.508" rx="3" ry="3" /><text font-family="sans-serif" font-size="11" fill="#000000" lengthAdjust="spacingAndGlyphs" textLength="59" x="1544.5" y="329.9268">SERIALIZE()</text><ellipse style="stroke: #038048; stroke-width: 1;" fill="#84be84" cx="1535.5" cy="339.344" rx="3" ry="3" /><text font-family="sans-serif" font-size="11" fill="#000000" lengthAdjust="spacingAndGlyphs" textLength="42" x="1544.5" y="343.7627">START()</text><!--MD5=[844e92394b50774edc78ead2566afce3]
class IF_SERIALIZABLE_OBJECT--><rect id="IF_SERIALIZABLE_OBJECT" style="stroke: #a80036; stroke-width: 1.5;" fill="#fefece" x="182" y="69.5" width="190" height="48" codeline="50" /><ellipse style="stroke: #a80036; stroke-width: 1;" fill="#b4a7e5" cx="197" cy="85.5" rx="11" ry="11" /><path fill="#000000" d="M 197.953 82.1406 L 197.953 88.7969 L 199.672 88.7969 Q 200.281 88.7969 200.547 89.0313 Q 200.813 89.2656 200.813 89.6563 Q 200.813 90.0313 200.547 90.2656 Q 200.281 90.5 199.672 90.5 L 194.531 90.5 Q 193.922 90.5 193.656 90.2656 Q 193.391 90.0313 193.391 89.6406 Q 193.391 89.2656 193.656 89.0313 Q 193.922 88.7969 194.531 88.7969 L 196.25 88.7969 L 196.25 82.1406 L 194.531 82.1406 Q 193.922 82.1406 193.656 81.9063 Q 193.391 81.6719 193.391 81.2813 Q 193.391 80.9063 193.656 80.6719 Q 193.922 80.4375 194.531 80.4375 L 199.672 80.4375 Q 200.281 80.4375 200.547 80.6719 Q 200.813 80.9063 200.813 81.2813 Q 200.813 81.6719 200.547 81.9063 Q 200.281 82.1406 199.672 82.1406 L 197.953 82.1406 Z" /><text font-family="sans-serif" font-size="12" font-style="italic" fill="#000000" lengthAdjust="spacingAndGlyphs" textLength="158" x="211" y="90.4102">IF_SERIALIZABLE_OBJECT</text><line style="stroke: #a80036; stroke-width: 1.5;" x1="183" y1="101.5" x2="371" y2="101.5" /><line style="stroke: #a80036; stroke-width: 1.5;" x1="183" y1="109.5" x2="371" y2="109.5" /><!--MD5=[278b424d92aa7e38f5d41ee9bd6e9ec4]
class ZIF_CALLABLE--><rect id="ZIF_CALLABLE" style="stroke: #a80036; stroke-width: 1.5;" fill="#fefece" x="27.5" y="62.5" width="119" height="61.8359" codeline="53" /><ellipse style="stroke: #a80036; stroke-width: 1;" fill="#b4a7e5" cx="42.5" cy="78.5" rx="11" ry="11" /><path fill="#000000" d="M 43.4531 75.1406 L 43.4531 81.7969 L 45.1719 81.7969 Q 45.7813 81.7969 46.0469 82.0313 Q 46.3125 82.2656 46.3125 82.6563 Q 46.3125 83.0313 46.0469 83.2656 Q 45.7813 83.5 45.1719 83.5 L 40.0313 83.5 Q 39.4219 83.5 39.1563 83.2656 Q 38.8906 83.0313 38.8906 82.6406 Q 38.8906 82.2656 39.1563 82.0313 Q 39.4219 81.7969 40.0313 81.7969 L 41.75 81.7969 L 41.75 75.1406 L 40.0313 75.1406 Q 39.4219 75.1406 39.1563 74.9063 Q 38.8906 74.6719 38.8906 74.2813 Q 38.8906 73.9063 39.1563 73.6719 Q 39.4219 73.4375 40.0313 73.4375 L 45.1719 73.4375 Q 45.7813 73.4375 46.0469 73.6719 Q 46.3125 73.9063 46.3125 74.2813 Q 46.3125 74.6719 46.0469 74.9063 Q 45.7813 75.1406 45.1719 75.1406 L 43.4531 75.1406 Z" /><text font-family="sans-serif" font-size="12" font-style="italic" fill="#000000" lengthAdjust="spacingAndGlyphs" textLength="87" x="56.5" y="83.4102">ZIF_CALLABLE</text><line style="stroke: #a80036; stroke-width: 1.5;" x1="28.5" y1="94.5" x2="145.5" y2="94.5" /><line style="stroke: #a80036; stroke-width: 1.5;" x1="28.5" y1="102.5" x2="145.5" y2="102.5" /><ellipse style="stroke: #038048; stroke-width: 1;" fill="#84be84" cx="38.5" cy="113.5" rx="3" ry="3" /><text font-family="sans-serif" font-size="11" fill="#000000" lengthAdjust="spacingAndGlyphs" textLength="35" x="47.5" y="117.9189">CALL()</text><!--MD5=[4bf8fdd5914e4c839b511f0876ad25a2]
reverse link ZIF_TASK to ZCL_ABSTRACT_TASK--><path class="path-line" id="ZIF_TASK-backto-ZCL_ABSTRACT_TASK" style="stroke: #a80036; stroke-dasharray: 7,7; stroke-width: 1;" fill="none" d="M 91 350.01 C 91 368.97 91 390.19 91 409.66" codeline="11" tooltip="ZIF_TASK-backto-ZCL_ABSTRACT_TASK" /><polygon style="stroke: #a80036; stroke-width: 1;" fill="none" points="84,349.77 91,329.77 98,349.77 84,349.77" /><!--MD5=[16fbcbfa2602d434db66dc13b60598f8]
reverse link ZIF_COLLECTION to ZCL_COLLECTION--><path class="path-line" id="ZIF_COLLECTION-backto-ZCL_COLLECTION" style="stroke: #a80036; stroke-dasharray: 7,7; stroke-width: 1;" fill="none" d="M 668 193.1 C 668 217.62 668 242.08 668 260.36" codeline="16" tooltip="ZIF_COLLECTION-backto-ZCL_COLLECTION" /><polygon style="stroke: #a80036; stroke-width: 1;" fill="none" points="661,193.09 668,173.09 675,193.09 661,193.09" /><!--MD5=[cf36af85d2ae0847468ab30dbe4213e9]
reverse link ZIF_EXECUTOR_SERVICE to ZCL_EXECUTOR_SERVICE--><path class="path-line" id="ZIF_EXECUTOR_SERVICE-backto-ZCL_EXECUTOR_SERVICE" style="stroke: #a80036; stroke-dasharray: 7,7; stroke-width: 1;" fill="none" d="M 1397 342.96 C 1397 375.55 1397 416.86 1397 444.4" codeline="21" tooltip="ZIF_EXECUTOR_SERVICE-backto-ZCL_EXECUTOR_SERVICE" /><polygon style="stroke: #a80036; stroke-width: 1;" fill="none" points="1390,342.55 1397,322.55 1404,342.55 1390,342.55" /><!--MD5=[e5704e9728d0c9396c62638251b695ba]
reverse link ZIF_ITERATOR to ZCL_ITERATOR--><path class="path-line" id="ZIF_ITERATOR-backto-ZCL_ITERATOR" style="stroke: #a80036; stroke-dasharray: 7,7; stroke-width: 1;" fill="none" d="M 503 179.35 C 503 208.25 503 238.71 503 260.42" codeline="26" tooltip="ZIF_ITERATOR-backto-ZCL_ITERATOR" /><polygon style="stroke: #a80036; stroke-width: 1;" fill="none" points="496,179.22 503,159.22 510,179.22 496,179.22" /><!--MD5=[c0789b9b451d913f718361e9f96c5d63]
reverse link ZIF_MESSAGE_HANDLER to ZCL_MESSAGE_HANDLER--><path class="path-line" id="ZIF_MESSAGE_HANDLER-backto-ZCL_MESSAGE_HANDLER" style="stroke: #a80036; stroke-dasharray: 7,7; stroke-width: 1;" fill="none" d="M 1157.22 151.08 C 1144.12 186.73 1127.73 231.35 1117.07 260.37" codeline="31" tooltip="ZIF_MESSAGE_HANDLER-backto-ZCL_MESSAGE_HANDLER" /><polygon style="stroke: #a80036; stroke-width: 1;" fill="none" points="1150.82,148.19 1164.29,131.83 1163.96,153.01 1150.82,148.19" /><!--MD5=[a245b2e63c00f57cc24a952ca638caa8]
reverse link ZCL_SPTA_WRAPPER to ZCL_EXECUTOR_SERVICE--><path class="path-line" id="ZCL_SPTA_WRAPPER-backto-ZCL_EXECUTOR_SERVICE" style="stroke: #a80036; stroke-width: 1;" fill="none" d="M 1534.72 353.41 C 1499.87 384.05 1459.19 419.82 1431.12 444.5" codeline="48" tooltip="ZCL_SPTA_WRAPPER-backto-ZCL_EXECUTOR_SERVICE" /><polygon style="stroke: #a80036; stroke-width: 1;" fill="#a80036" points="1538.5,350.09 1529.1,353.024 1534.74,353.39 1534.38,359.035 1538.5,350.09" /><!--MD5=[89855629fcaa27a25eb5bb15855f1b1a]
reverse link ZIF_COLLECTION to ZCL_ITERATOR--><path class="path-line" id="ZIF_COLLECTION-backto-ZCL_ITERATOR" style="stroke: #a80036; stroke-width: 1;" fill="none" d="M 598.5 177.06 C 573.62 206.61 547.13 238.08 528.37 260.36" codeline="67" tooltip="ZIF_COLLECTION-backto-ZCL_ITERATOR" /><polygon style="stroke: #a80036; stroke-width: 1;" fill="#a80036" points="601.84,173.09 592.99,177.411 598.625,176.919 599.117,182.555 601.84,173.09" /><!--MD5=[8ea6a50797c95509b149508354849ff0]
reverse link ZIF_COLLECTION to ZCL_SPTA_GATEWAY--><path class="path-line" id="ZIF_COLLECTION-backto-ZCL_SPTA_GATEWAY" style="stroke: #a80036; stroke-width: 1;" fill="none" d="M 739.44 161.82 C 763.96 184.92 791.15 210.55 814.78 232.81" codeline="68" tooltip="ZIF_COLLECTION-backto-ZCL_SPTA_GATEWAY" /><polygon style="stroke: #a80036; stroke-width: 1;" fill="#a80036" points="735.53,158.14 739.342,167.221 739.171,161.567 744.825,161.395 735.53,158.14" /><!--MD5=[148059e395ef2030be5569bcce356f35]
reverse link IF_SERIALIZABLE_OBJECT to ZIF_TASK--><path class="path-line" id="IF_SERIALIZABLE_OBJECT-backto-ZIF_TASK" style="stroke: #a80036; stroke-dasharray: 7,7; stroke-width: 1;" fill="none" d="M 240.96 132.48 C 207.9 167.32 159.22 218.61 126.38 253.22" codeline="87" tooltip="IF_SERIALIZABLE_OBJECT-backto-ZIF_TASK" /><polygon style="stroke: #a80036; stroke-width: 1;" fill="none" points="236.09,127.44 254.93,117.75 246.24,137.08 236.09,127.44" /><!--MD5=[9aadd0eee0f8b7c3cee68879c9b04262]
reverse link ZIF_CALLABLE to ZIF_TASK--><path class="path-line" id="ZIF_CALLABLE-backto-ZIF_TASK" style="stroke: #a80036; stroke-dasharray: 7,7; stroke-width: 1;" fill="none" d="M 88.03 144.75 C 88.72 178.6 89.61 222.49 90.24 253.23" codeline="88" tooltip="ZIF_CALLABLE-backto-ZIF_TASK" /><polygon style="stroke: #a80036; stroke-width: 1;" fill="none" points="81.03,144.83 87.62,124.7 95.02,144.55 81.03,144.83" /><!--MD5=[c78d72c1ab890a124c7b3d2e990dc080]
reverse link ZIF_MESSAGE_HANDLER to ZCL_EXECUTOR_SERVICE--><path class="path-line" id="ZIF_MESSAGE_HANDLER-backto-ZCL_EXECUTOR_SERVICE" style="stroke: #a80036; stroke-width: 1;" fill="none" d="M 1191.36 136.81 C 1208.93 189.21 1242.83 280.09 1287 350 C 1309.18 385.11 1341.21 420.12 1365 444.02" codeline="101" tooltip="ZIF_MESSAGE_HANDLER-backto-ZCL_EXECUTOR_SERVICE" /><polygon style="stroke: #a80036; stroke-width: 1;" fill="#a80036" points="1189.71,131.86 1188.77,141.664 1191.3,136.602 1196.36,139.127 1189.71,131.86" /><!--MD5=[07ba0089441f8dd237d5b09eddd797da]
reverse link ZIF_MESSAGE_HANDLER to ZCL_SPTA_GATEWAY--><path class="path-line" id="ZIF_MESSAGE_HANDLER-backto-ZCL_SPTA_GATEWAY" style="stroke: #a80036; stroke-width: 1;" fill="none" d="M 1116.4 134.48 C 1072.73 162.82 1013.46 201.29 964.71 232.93" codeline="102" tooltip="ZIF_MESSAGE_HANDLER-backto-ZCL_SPTA_GATEWAY" /><polygon style="stroke: #a80036; stroke-width: 1;" fill="#a80036" points="1120.84,131.6 1111.11,133.149 1116.65,134.324 1115.47,139.857 1120.84,131.6" /><!--MD5=[92b50e0aeabd0f435ba1db6050dbbb36]
reverse link ZIF_MESSAGE_HANDLER to ZCL_SPTA_WRAPPER--><path class="path-line" id="ZIF_MESSAGE_HANDLER-backto-ZCL_SPTA_WRAPPER" style="stroke: #a80036; stroke-width: 1;" fill="none" d="M 1225.93 134.69 C 1244.15 148.4 1265.67 162.82 1287 173 C 1378.47 216.64 1413.68 193.47 1507 233 C 1512.77 235.44 1518.61 238.17 1524.42 241.08" codeline="103" tooltip="ZIF_MESSAGE_HANDLER-backto-ZCL_SPTA_WRAPPER" /><polygon style="stroke: #a80036; stroke-width: 1;" fill="#a80036" points="1221.85,131.6 1226.62,140.219 1225.84,134.616 1231.44,133.838 1221.85,131.6" /><!--MD5=[a9c52db135115b376a80238ad5a72c30]
reverse link IF_SERIALIZABLE_OBJECT to PROG::ZCONCURRENCY_API_EXAMPLE::LCL_CONTEXT--><path class="path-line" id="IF_SERIALIZABLE_OBJECT-backto-PROG::ZCONCURRENCY_API_EXAMPLE::LCL_CONTEXT" style="stroke: #a80036; stroke-dasharray: 7,7; stroke-width: 1;" fill="none" d="M 275.86 137.78 C 273.94 210.63 270.09 356.93 268.16 430.35" codeline="117" tooltip="IF_SERIALIZABLE_OBJECT-backto-PROG::ZCONCURRENCY_API_EXAMPLE::LCL_CONTEXT" /><polygon style="stroke: #a80036; stroke-width: 1;" fill="none" points="268.87,137.51 276.39,117.7 282.86,137.88 268.87,137.51" /><!--MD5=[9bb04404f7c0e7cca786471b5cab71c6]
reverse link PROG::ZCONCURRENCY_API_EXAMPLE::LCL_CONTEXT to PROG::ZCONCURRENCY_API_EXAMPLE::LCL_TASK--><path class="path-line" id="PROG::ZCONCURRENCY_API_EXAMPLE::LCL_CONTEXT-backto-PROG::ZCONCURRENCY_API_EXAMPLE::LCL_TASK" style="stroke: #a80036; stroke-width: 1;" fill="none" d="M 270.39 525.89 C 271.99 549.31 273.91 577.26 275.53 600.85" codeline="118" tooltip="PROG::ZCONCURRENCY_API_EXAMPLE::LCL_CONTEXT-backto-PROG::ZCONCURRENCY_API_EXAMPLE::LCL_TASK" /><polygon style="stroke: #a80036; stroke-width: 1;" fill="#a80036" points="270.03,520.66 266.655,529.913 270.372,525.648 274.636,529.365 270.03,520.66" /><!--MD5=[381b35376ec3bed1606521bab10b857d]
reverse link IF_SERIALIZABLE_OBJECT to PROG::ZCONCURRENCY_API_EXAMPLE::LCL_RESULT--><path class="path-line" id="IF_SERIALIZABLE_OBJECT-backto-PROG::ZCONCURRENCY_API_EXAMPLE::LCL_RESULT" style="stroke: #a80036; stroke-dasharray: 7,7; stroke-width: 1;" fill="none" d="M 292.48 136.53 C 320.04 211.31 377.13 366.29 403.33 437.39" codeline="124" tooltip="IF_SERIALIZABLE_OBJECT-backto-PROG::ZCONCURRENCY_API_EXAMPLE::LCL_RESULT" /><polygon style="stroke: #a80036; stroke-width: 1;" fill="none" points="285.89,138.89 285.55,117.7 299.03,134.05 285.89,138.89" /><!--MD5=[69297c1517ab359427ec2845367997a5]
reverse link ZCL_ABSTRACT_TASK to PROG::ZCONCURRENCY_API_EXAMPLE::LCL_TASK--><path class="path-line" id="ZCL_ABSTRACT_TASK-backto-PROG::ZCONCURRENCY_API_EXAMPLE::LCL_TASK" style="stroke: #a80036; stroke-width: 1;" fill="none" d="M 175.3 554.97 C 192 570.52 209.11 586.45 224.5 600.77" codeline="132" tooltip="ZCL_ABSTRACT_TASK-backto-PROG::ZCONCURRENCY_API_EXAMPLE::LCL_TASK" /><polygon style="stroke: #a80036; stroke-width: 1;" fill="none" points="170.34,559.92 160.47,541.17 179.88,549.67 170.34,559.92" /><!--MD5=[1ac5184172d2b49d5087f2a92c17e7c7]
@startuml
skinparam shadowing false
set namespaceSeparator ::
abstract class ZCL_ABSTRACT_TASK {
# MV_ID 
# MV_NAME 
# MV_TASK_COUNTER 
# CREATE_TASK_ID() 
# CREATE_TASK_NAME() 
+ CONSTRUCTOR() 
}
ZIF_TASK <|.. ZCL_ABSTRACT_TASK

class ZCL_COLLECTION {
# MT_COLLECTION 
}
ZIF_COLLECTION <|.. ZCL_COLLECTION

class ZCL_EXECUTOR_SERVICE {
+ CONSTRUCTOR() 
}
ZIF_EXECUTOR_SERVICE <|.. ZCL_EXECUTOR_SERVICE

class ZCL_ITERATOR {
+ CONSTRUCTOR() 
}
ZIF_ITERATOR <|.. ZCL_ITERATOR

class ZCL_MESSAGE_HANDLER {
+ HAS_MESSAGES() 
}
ZIF_MESSAGE_HANDLER <|.. ZCL_MESSAGE_HANDLER

class ZCL_SPTA_GATEWAY {
+ MO_MESSAGE_HANDLER 
+ MO_RESULTS 
+ MO_TASKS 
+ MV_NO_RESUBMISSION_ON_ERROR 
+ CONSTRUCTOR() 
}

class ZCL_SPTA_WRAPPER {
+ CONSTRUCTOR() 
+ DESERIALIZE() 
+ PROGRESS_INDICATOR() 
+ SERIALIZE() 
+ START() 
}
ZCL_SPTA_WRAPPER <- - ZCL_EXECUTOR_SERVICE

interface IF_SERIALIZABLE_OBJECT {
}

interface ZIF_CALLABLE {
+ CALL() 
}

interface ZIF_COLLECTION {
+ ADD() 
+ CLEAR() 
+ GET_ITEM() 
+ GET_ITERATOR() 
+ IS_EMPTY() 
+ REMOVE() 
+ REMOVE_INDEX() 
+ SIZE() 
}
ZIF_COLLECTION <- - ZCL_ITERATOR
ZIF_COLLECTION <- - ZCL_SPTA_GATEWAY

interface ZIF_EXECUTOR_SERVICE {
+ INVOKE_ALL() 
}

interface ZIF_ITERATOR {
+ CURRENT() 
+ FIRST() 
+ GET_INDEX() 
+ HAS_NEXT() 
+ LAST() 
+ NEXT() 
}

interface ZIF_TASK {
+ GET_ID() 
+ GET_NAME() 
}
IF_SERIALIZABLE_OBJECT <|.. ZIF_TASK
ZIF_CALLABLE <|.. ZIF_TASK

class PROG::ZCONCURRENCY_API::ZCONCURRENCY_API <<(P, #00FFEE) >> {
+ AFTER_RFC() 
+ BEFORE_RFC() 
+ IN_RFC() 
+ PROCESS_FAILED_OBJECTS() 
}

interface ZIF_MESSAGE_HANDLER {
+ ADD_MESSAGE() 
+ GET_MESSAGE_LIST() 
}
ZIF_MESSAGE_HANDLER <- - ZCL_EXECUTOR_SERVICE
ZIF_MESSAGE_HANDLER <- - ZCL_SPTA_GATEWAY
ZIF_MESSAGE_HANDLER <- - ZCL_SPTA_WRAPPER

class PROG::ZCONCURRENCY_API_EXAMPLE::ZCONCURRENCY_API_EXAMPLE <<(P, #00FFEE) >> {
}

class PROG::ZCONCURRENCY_API_EXAMPLE::LCL_APP {
+ MAIN() 
}

class PROG::ZCONCURRENCY_API_EXAMPLE::LCL_CONTEXT {
+ MS_PARAMS 
+ CONSTRUCTOR() 
+ GET() 
}
IF_SERIALIZABLE_OBJECT <|.. PROG::ZCONCURRENCY_API_EXAMPLE::LCL_CONTEXT
PROG::ZCONCURRENCY_API_EXAMPLE::LCL_CONTEXT <- - PROG::ZCONCURRENCY_API_EXAMPLE::LCL_TASK

class PROG::ZCONCURRENCY_API_EXAMPLE::LCL_RESULT {
+ CONSTRUCTOR() 
+ GET() 
}
IF_SERIALIZABLE_OBJECT <|.. PROG::ZCONCURRENCY_API_EXAMPLE::LCL_RESULT

class PROG::ZCONCURRENCY_API_EXAMPLE::LCL_TASK {
+ MO_CONTEXT 
+ MV_RES 
+ CONSTRUCTOR() 
+ ZIF_CALLABLE~CALL() 
}
ZCL_ABSTRACT_TASK <|- - PROG::ZCONCURRENCY_API_EXAMPLE::LCL_TASK

@enduml

PlantUML version 1.2020.23(Sun Dec 13 22:14:58 GMT+03:00 2020)
(GPL source distribution)
Java Runtime: Java(TM) SE Runtime Environment
JVM: Java HotSpot(TM) Client VM
Default Encoding: Cp1252
Language: en
Country: US
--></g><g xmlns="http://www.w3.org/2000/svg" class="svg-pan-zoom-control" id="svg-pan-zoom-controls" transform="translate(1062 570) scale(0.75)"><g class="svg-pan-zoom-control" id="svg-pan-zoom-zoom-in" transform="translate(30.5 5) scale(0.015)"><rect class="svg-pan-zoom-control-background" x="0" y="0" width="1500" height="1400" /><path class="svg-pan-zoom-control-element" d="M 1280 576 v 128 q 0 26 -19 45 t -45 19 h -320 v 320 q 0 26 -19 45 t -45 19 h -128 q -26 0 -45 -19 t -19 -45 v -320 h -320 q -26 0 -45 -19 t -19 -45 v -128 q 0 -26 19 -45 t 45 -19 h 320 v -320 q 0 -26 19 -45 t 45 -19 h 128 q 26 0 45 19 t 19 45 v 320 h 320 q 26 0 45 19 t 19 45 Z M 1536 1120 v -960 q 0 -119 -84.5 -203.5 t -203.5 -84.5 h -960 q -119 0 -203.5 84.5 t -84.5 203.5 v 960 q 0 119 84.5 203.5 t 203.5 84.5 h 960 q 119 0 203.5 -84.5 t 84.5 -203.5 Z" /></g><g class="svg-pan-zoom-control" id="svg-pan-zoom-reset-pan-zoom" transform="translate(5 35) scale(0.4)"><rect class="svg-pan-zoom-control-background" x="2" y="2" width="182" height="58" /><path class="svg-pan-zoom-control-element" d="M 33.051 20.632 c -0.742 -0.406 -1.854 -0.609 -3.338 -0.609 h -7.969 v 9.281 h 7.769 c 1.543 0 2.701 -0.188 3.473 -0.562 c 1.365 -0.656 2.048 -1.953 2.048 -3.891 C 35.032 22.757 34.372 21.351 33.051 20.632 Z" /><path class="svg-pan-zoom-control-element" d="M 170.231 0.5 H 15.847 C 7.102 0.5 0.5 5.708 0.5 11.84 v 38.861 C 0.5 56.833 7.102 61.5 15.847 61.5 h 154.384 c 8.745 0 15.269 -4.667 15.269 -10.798 V 11.84 C 185.5 5.708 178.976 0.5 170.231 0.5 Z M 42.837 48.569 h -7.969 c -0.219 -0.766 -0.375 -1.383 -0.469 -1.852 c -0.188 -0.969 -0.289 -1.961 -0.305 -2.977 l -0.047 -3.211 c -0.03 -2.203 -0.41 -3.672 -1.142 -4.406 c -0.732 -0.734 -2.103 -1.102 -4.113 -1.102 h -7.05 v 13.547 h -7.055 V 14.022 h 16.524 c 2.361 0.047 4.178 0.344 5.45 0.891 c 1.272 0.547 2.351 1.352 3.234 2.414 c 0.731 0.875 1.31 1.844 1.737 2.906 s 0.64 2.273 0.64 3.633 c 0 1.641 -0.414 3.254 -1.242 4.84 s -2.195 2.707 -4.102 3.363 c 1.594 0.641 2.723 1.551 3.387 2.73 s 0.996 2.98 0.996 5.402 v 2.32 c 0 1.578 0.063 2.648 0.19 3.211 c 0.19 0.891 0.635 1.547 1.333 1.969 V 48.569 Z M 75.579 48.569 h -26.18 V 14.022 h 25.336 v 6.117 H 56.454 v 7.336 h 16.781 v 6 H 56.454 v 8.883 h 19.125 V 48.569 Z M 104.497 46.331 c -2.44 2.086 -5.887 3.129 -10.34 3.129 c -4.548 0 -8.125 -1.027 -10.731 -3.082 s -3.909 -4.879 -3.909 -8.473 h 6.891 c 0.224 1.578 0.662 2.758 1.316 3.539 c 1.196 1.422 3.246 2.133 6.15 2.133 c 1.739 0 3.151 -0.188 4.236 -0.562 c 2.058 -0.719 3.087 -2.055 3.087 -4.008 c 0 -1.141 -0.504 -2.023 -1.512 -2.648 c -1.008 -0.609 -2.607 -1.148 -4.796 -1.617 l -3.74 -0.82 c -3.676 -0.812 -6.201 -1.695 -7.576 -2.648 c -2.328 -1.594 -3.492 -4.086 -3.492 -7.477 c 0 -3.094 1.139 -5.664 3.417 -7.711 s 5.623 -3.07 10.036 -3.07 c 3.685 0 6.829 0.965 9.431 2.895 c 2.602 1.93 3.966 4.73 4.093 8.402 h -6.938 c -0.128 -2.078 -1.057 -3.555 -2.787 -4.43 c -1.154 -0.578 -2.587 -0.867 -4.301 -0.867 c -1.907 0 -3.428 0.375 -4.565 1.125 c -1.138 0.75 -1.706 1.797 -1.706 3.141 c 0 1.234 0.561 2.156 1.682 2.766 c 0.721 0.406 2.25 0.883 4.589 1.43 l 6.063 1.43 c 2.657 0.625 4.648 1.461 5.975 2.508 c 2.059 1.625 3.089 3.977 3.089 7.055 C 108.157 41.624 106.937 44.245 104.497 46.331 Z M 139.61 48.569 h -26.18 V 14.022 h 25.336 v 6.117 h -18.281 v 7.336 h 16.781 v 6 h -16.781 v 8.883 h 19.125 V 48.569 Z M 170.337 20.14 h -10.336 v 28.43 h -7.266 V 20.14 h -10.383 v -6.117 h 27.984 V 20.14 Z" /></g><g class="svg-pan-zoom-control" id="svg-pan-zoom-zoom-out" transform="translate(30.5 70) scale(0.015)"><rect class="svg-pan-zoom-control-background" x="0" y="0" width="1500" height="1400" /><path class="svg-pan-zoom-control-element" d="M 1280 576 v 128 q 0 26 -19 45 t -45 19 h -896 q -26 0 -45 -19 t -19 -45 v -128 q 0 -26 19 -45 t 45 -19 h 896 q 26 0 45 19 t 19 45 Z M 1536 1120 v -960 q 0 -119 -84.5 -203.5 t -203.5 -84.5 h -960 q -119 0 -203.5 84.5 t -84.5 203.5 v 960 q 0 119 84.5 203.5 t 203.5 84.5 h 960 q 119 0 203.5 -84.5 t 84.5 -203.5 Z" /></g></g></svg>