<?xml version="1.0" encoding="UTF-8"?>
<!DOCTYPE svg PUBLIC "-//W3C//DTD SVG 1.1//EN" "http://www.w3.org/Graphics/SVG/1.1/DTD/svg11.dtd">
<!-- Creator: CorelDRAW Standard 2021 (64-Bit Оценочная версия) -->
<svg xmlns="http://www.w3.org/2000/svg" xml:space="preserve" width="270.933mm" height="203.2mm" version="1.1" style="shape-rendering:geometricPrecision; text-rendering:geometricPrecision; image-rendering:optimizeQuality; fill-rule:evenodd; clip-rule:evenodd"
viewBox="0 0 27093.32 20320"
 xmlns:xlink="http://www.w3.org/1999/xlink"
 xmlns:xodm="http://www.corel.com/coreldraw/odm/2003">
 <defs>
  <style type="text/css">
   <![CDATA[
    .fil0 {fill:black}
    .fil4 {fill:#93416A}
    .fil2 {fill:#FF716E}
    .fil1 {fill:#FFD2D2}
    .fil3 {fill:white}
   ]]>
  </style>
 </defs>
 <g id="Слой_x0020_1">
  <metadata id="CorelCorpID_0Corel-Layer"/>
  <g id="_2539893705488">
   <path class="fil0" d="M21554.31 13820.89c-31.66,-65.25 -35.34,-129.12 -30.6,-197.86 5.06,-74.46 -28.42,-128.14 -92.45,-169 -56.71,-36.25 -107.78,-81.58 -159.91,-124.51 -86.88,-71.66 -182.8,-121.46 -298.53,-107.5 -88.66,10.59 -175.41,12.13 -262.96,-7.12 -81.7,-17.86 -156.87,11.7 -198.3,76.28 -48.49,75.58 -106.95,136.36 -173.31,193.95 -24.66,21.31 -47.11,52.69 -55.61,83.68 -40.71,147.78 -56.76,292.91 56.16,422.59 39.92,45.73 66.8,102.37 105.14,149.6 18.57,22.89 47.55,37.12 72.8,54.27 -32.21,28.42 -64.15,42.37 -108.77,19.53 -137.74,-70.44 -210.55,-186.88 -248.77,-331.3 -57.7,-218.37 -26.88,-432.12 31.38,-644.21 46.88,-170.51 98.58,-339.8 145.46,-510.31 83.23,-302.04 153.23,-604.45 158.37,-922.23 8.81,-554.96 -123.24,-1065.7 -436.43,-1524.03 -95.33,-139.56 -210,-267.7 -327.38,-389.99 -165.22,-172.05 -354.03,-318.88 -561.22,-437.38 -242.87,-139.05 -499.47,-246.95 -774.56,-308.17 -241.22,-53.56 -483.27,-82.69 -727.14,-26.48 -145.41,33.59 -290.03,72.76 -431.96,118.49 -227.03,73.08 -449.56,69.44 -682.83,17.87 -321.81,-70.99 -598.33,-482.01 -489.83,-844.85 44.62,-149.32 96.64,-297.7 161.62,-439.08 76.55,-166.59 172.16,-324.3 256.95,-487.3 43.83,-84.22 90.23,-168.61 120.74,-257.97 81.62,-237.74 164.15,-475.88 229.68,-718.48 61.9,-229.52 117.82,-462.68 149.6,-697.73 55.65,-412.6 61.5,-828.68 -2.37,-1241.55 -47.94,-309.24 -103.2,-617.69 -168.45,-923.62 -78.06,-367.26 -278.3,-676.82 -494.42,-975.9 -31.38,-43.36 -71.93,-84.35 -116.83,-113.08 -205.97,-132.33 -406.32,-277.46 -624.97,-384.54 -298.92,-146.28 -614.21,-258.25 -934.76,-351.65 -51.97,-15.21 -105.57,-29.29 -159.24,-34.46 -355.53,-33.99 -707.06,2.53 -1053.97,78.49 -105.41,23.16 -211.97,58.74 -306.35,110.04 -221.26,120.04 -439.76,248.17 -629.55,415.36 -255.73,225.33 -505.88,458.06 -656.31,772.63 -81.98,171.34 -157.7,346.2 -228.81,522.44 -82.69,204.82 -109.72,421.26 -107.94,640.85 2.69,307.59 46.6,610.58 114.5,909.94 22.61,99.41 45.02,200.08 81.26,294.9 206.68,539.9 424.46,1075.62 609.08,1623.59 58.58,173.71 116.01,349.28 154.62,528.17 53.12,245.69 99.41,494.02 127.59,743.62 41.26,364.89 -67.08,669.27 -393.35,878.16 -288.22,184.46 -607.5,224.89 -937.13,229.76 -32.89,0.43 -66.64,-12.26 -99.01,-22.18 -149.45,-46.12 -300.19,-88.53 -447.3,-141.38 -302.25,-108.61 -607.82,-192.29 -931.44,-214.02 -465.8,-31.39 -904.92,47.54 -1328.67,245.68 -475.6,222.53 -889.03,527.06 -1250.83,903.42 -481.18,500.26 -751.45,1093.84 -775,1793.39 -7.79,232.56 -48.11,459.99 -121.74,681.01 -7.35,22.02 -29.53,39.17 -46.28,60.36 -66.05,-76.56 -69.45,-76.29 -71.82,-124.51 -3.87,-83.67 -16.29,-167.46 -76.4,-227.42 -91.19,-90.79 -173.87,-185.02 -233.28,-301.06 -25.06,-49.21 -80.43,-69.84 -139.28,-71.22 -57.87,-1.43 -82.41,36.79 -107.9,79.04 -9.61,15.62 -30.99,24.11 -47.99,36.8 -41.66,-3.48 -82.25,-5.85 -122.68,-10.31 -209.13,-22.73 -390.98,25.37 -526.95,198.13 -16.16,20.64 -38.22,50.36 -58.97,51.46 -116.67,6.29 -156.59,92.02 -212.92,190.04 91.07,87.03 51.31,198.14 46.84,304.81 -2.21,53.96 -24.66,107.95 -22.17,161.07 3.4,69.72 9.21,132.6 -56.76,180.82 -18.38,13.52 -29.52,47 -30.67,71.98 -3.6,88.1 -4.86,177.19 51.89,264.22 26.49,7.67 58.82,15.61 90.08,26.76 31.38,11.3 64.7,21.34 91.86,39.88 151.18,102.88 300.78,208.18 462.4,320.54 7.11,24.43 16.44,64.31 30.39,102.37 39.33,107.35 147.51,127.59 221.81,39.17 29.45,-35.02 47.43,-79.76 69.61,-118.37 352.36,55.76 352.32,55.76 667.17,-47.12 27.47,35.1 53.84,74.7 86.17,108.34 41.02,42.8 103.75,47.94 146.99,7.23 33.32,-31.22 64.11,-71.38 79.44,-113.63 17.75,-49.09 17.43,-104.86 25.54,-161.74 56.6,-32.76 117.27,-63.87 173.71,-101.38 121.06,-80.59 221.18,-176.79 267.3,-323.35 25.97,-82.84 74.63,-158.37 113.52,-238.02 35.14,-4.03 61.78,-6 87.82,-10.43 165.57,-28.46 221.58,-127.31 155.49,-275.13 -13.51,-30.24 -31.38,-58.54 -51.58,-95.65 143.32,-276.08 128.97,-592.87 221.54,-884.41 42.96,-5.89 77.39,-6.56 109.05,-16.2 24.42,-7.67 57.86,-21.74 65.53,-41.38 24.15,-62.06 47.43,-127.31 53.28,-192.85 5.85,-65.96 -66.24,-77.27 -106.12,-110.98 -8.23,-6.84 -6.96,-24.7 -14.08,-54.55 138.5,-189.36 323.36,-351.21 487.19,-531.52 29.84,-32.77 75.41,-51.31 110.27,-74.15 58.89,42.09 104.19,84.19 157.43,110.27 69.44,34.03 137.35,-5.45 153.51,-80.59 8.1,-37.94 11.31,-76.83 17.98,-124.78 148.22,-21.06 288.5,-43.95 429.48,-60.39 139.84,-16.33 274.7,-86.44 421.77,-42.37 18.69,28.85 34.86,59.25 56.08,85.61 87.04,108.06 187.11,98.14 256.95,-25.53 15.93,-28.03 26.37,-59.13 41.27,-93.44 352.91,103.04 701.8,131.5 1057.09,62.33 87.42,85.49 175.25,163.71 311.77,102.92 20.79,-44.5 43.08,-92.01 65.53,-140.27 170.11,0 334.5,-13.12 495.8,3.63 169.99,17.71 336.47,31.23 503.94,-11.46 10.91,-2.65 25.09,7.95 42.09,13.84 19.01,32.17 37.39,68.85 61.34,101.5 11.19,15.05 31.82,28.14 50.36,32.21 94.11,21.03 223.23,-65.26 215.84,-161.18 -6.68,-87.16 35.42,-127.19 93.44,-162.88 141.5,-87.16 257.23,-199.41 350.66,-336.32 5.73,-8.22 23.99,-7.79 40.99,-12.69 0,47.15 7.94,94.7 -1.27,138.62 -67.31,319.99 -157.11,634.01 -278.01,937.68 -39.57,99.4 -98.02,195.21 -164.82,279.16 -187.23,235.33 -407.26,437.11 -649.47,616.98 -158.1,117.39 -315.57,240.23 -452.2,381.22 -303.39,313.15 -587.42,643.5 -787.53,1036.69 -176.8,347.74 -308.69,709.31 -342.44,1100.96 -19.25,223.51 -31.39,447.62 -50.48,671.13 -14.62,171.78 -68.89,331.97 -156.99,480.62 -39.17,66.09 -88.97,121.58 -162.33,148.62 -35.37,13.12 -76.52,35.84 -111.81,-12.42 6.83,-30.39 15.33,-63.12 21.46,-96.32 15.37,-82.56 -18.26,-147.94 -80.04,-197.58 -57.82,-46.56 -116.95,-95.1 -183.2,-126.88 -52.68,-25.37 -116.71,-35.41 -175.96,-36.4 -74.31,-1.26 -149.05,11.58 -222.96,22.29 -39.72,5.89 -83.24,11.59 -116.44,31.66 -158.1,95.53 -266.16,224.07 -293.51,417.46 -17.27,121.74 -52.57,237.35 35.97,347.62 18.73,23.16 10.63,66.09 21.34,97.63 17.19,51.03 30.12,107.63 61.78,148.89 116.44,151.58 239.68,293.11 435.6,354.02 107.67,33.48 201.46,113.52 325.84,59.68 20.24,-8.77 51.74,10.75 78.5,14.67 148.53,21.3 284.02,-7.99 403.27,-102.92 31.66,-25.38 66.2,-47 97.31,-68.74 16.92,8.5 32.37,11.42 40.04,20.75 46.16,56.76 99.52,96.36 175.8,66.52 79.09,-31.06 144.86,-72.09 139.84,-176.4 -1.66,-36.08 20.79,-77.07 41.3,-110.27 96.37,-155.33 195.89,-308.69 304.38,-478.53 22.18,0 62.18,1.27 102.22,-0.27 60.11,-2.26 100.11,-33.91 127.86,-86.76 33.32,-63.28 57.27,-133.16 17.82,-194.34 -59.2,-92.33 -36.4,-181.42 -17.82,-274.98 15.77,-79.64 28.14,-159.91 40.55,-240.11 11.46,-73.2 6.13,-150.59 54.27,-212.92 167.58,-63.32 207.86,-116.44 216.51,-278.29 3.4,-60.79 -3.32,-127.19 18.98,-180.87 76.28,-182.52 166.75,-357.5 328.09,-484.65 66.36,-52.45 122.01,-95.25 218.49,-56.08 73.36,29.84 145.85,-14.07 193.24,-80.87 19.41,-27.47 42.25,-57.15 48.42,-88.81 19.09,-97.19 85.88,-151.26 163.39,-197.86 193.67,-116.01 365.88,-259.6 530.98,-412.44 19.8,-18.42 43.08,-32.77 62.45,-47.28 137.9,31.23 187.82,19.96 251.14,-68.02 22.56,-31.54 38.34,-72.92 43.08,-111.58 9.05,-74.58 51.02,-117.66 106.95,-163.27 234.38,-191.58 395.29,-428.77 428.61,-738.56 2.09,-19.8 10.04,-39.21 14.94,-57.59 41.82,-46.6 124.5,-25.1 148.89,-96.48 28.34,-83.12 67.9,-161.5 48.65,-256.16 -10.27,-50.75 -2.92,-107.07 5.85,-159.36 23.6,-140.83 51.46,-280.98 79.09,-421.1 7.99,-39.76 8.34,-90.51 33.16,-115.45 101.26,-102.49 83.68,-227.82 68.22,-346.24 -12.8,-97.74 -2.53,-189.32 15.89,-282.6 10.32,-52.01 23.83,-103.47 37.91,-164.14 9.09,26.24 16.6,44.34 21.62,63.2 10.75,39.28 19.96,79.05 30.23,118.49 88.69,337.42 212.53,660.1 410.78,950.1 76.72,112.25 156.88,222.4 239.84,330.19 187.15,243.59 258.09,537.53 358.49,818.63 8.38,23.4 11.58,58.97 -0.28,77.79 -67.07,106.24 -21.46,183.63 63.16,244.57 73.24,52.57 102.21,124.39 116.01,206.36 46.44,274.82 12.68,542.28 -75.3,804.69 -15.45,46.56 -37.35,84.22 -84.23,108.77 -122.64,64.54 -150.27,172.17 -109.01,294.46 19.13,56.32 15.89,102.21 1.11,156.59 -51.3,190.59 -92.29,383.04 -101.22,581.57 -3.64,81.3 -16.88,162.61 -31.23,242.92 -5.73,31.34 -18.97,76.24 -41.69,86.84 -97.87,45.61 -101.23,137.34 -122.02,221.18 -13.95,56.16 -5.29,107.9 42.65,147.78 37.15,30.67 69.17,63.44 74.07,116.56 23,247.94 91.02,479.95 249.72,672.23 -4.71,36.09 -9.61,62.73 -11.58,89.65 -14.47,193.11 17.31,238.84 200.23,297.42 57.86,18.54 115.61,39.05 171.1,63.55 144.86,64.03 293.35,107.79 453.86,103.48 67.47,-1.66 129.8,9.05 195.33,40.43 117.12,55.93 240.23,58.14 331.85,-57.15 36.29,-45.73 82.25,-67.9 132.77,-89.13 110.71,-46.56 190.58,-124.9 249.16,-230.9 55.33,-100.12 116.95,-192.25 223.51,-256.28 116.05,-69.72 143.2,-285.13 42.37,-358.88 -91.3,-66.92 -129.8,-148.22 -160.74,-245.25 -7.95,-24.98 -27.47,-46.72 -43.24,-68.78 -46.72,-65.37 -94.27,-130.07 -148.66,-205.09 -97.7,-4.19 -203.55,-36.8 -312.32,-6.28 -108.46,30.55 -217.11,60.78 -327.54,91.73 -7.35,-21.58 -18.1,-40.27 -19.49,-59.64 -3.91,-54.27 -6.99,-108.93 -5.18,-163.16 11.19,-344.1 82.85,-674.84 224.5,-989.26 181.82,-403.71 351.5,-809.59 429.16,-1251.04 57.04,-324.18 50.08,-636.66 -72.48,-941.71 -60.79,-151.3 -133.87,-297.98 -206.09,-444.26 -114.89,-232.72 -272.6,-439.36 -406.31,-660.22 -117.39,-194.11 -255.61,-367.98 -411.89,-529.87 -142.64,-147.63 -258.8,-315.37 -366.15,-489.51 -68.46,-110.87 -100.95,-231.18 -115.18,-366.04 137.78,43.51 134.27,45.17 157.7,141.1 29.57,120.91 125.34,166.08 248.46,121.18 24.7,-9.05 46.72,-25.25 55.49,-30.11 227.74,48.93 439.36,94.38 652.99,140.39 9.48,35.29 15.77,61.1 23.28,86.32 24.98,82.69 88.69,119.36 167.31,128.02 65.96,7.07 89.68,-50.63 119.91,-95.25 7.28,-10.6 19.13,-17.99 28.86,-26.76 319.91,-8.22 858.35,137.62 924.2,250.27 -10.04,52.45 -20.08,104.86 -28.18,146.95 39.05,70.28 93.83,108.5 153.67,110.87 62.77,2.49 126.6,-24.27 195.77,-39.45 107.63,163.67 177.9,342.56 213.16,527.62 37.43,195.33 89.68,382.71 172.09,556.47 -6.41,19.8 -10.48,32.64 -14.67,45.45 -48.77,149.2 -28.85,188.81 118.81,239.4 24.71,8.54 48.11,20.79 64.15,27.9 104.43,247.63 112.65,395.45 40.28,623.15 -28.81,90.75 -52.69,183.2 -84.62,272.72 -33.28,93.83 -22.85,175.14 55.37,239.68 51.74,42.53 71.5,97.19 77.07,160.35 12.3,135.37 21.9,271.06 37.95,406.04 15.93,134.82 17.98,276.51 64.15,400.86 38.1,102.49 79.88,190.35 63.99,306.63 -15.73,114.35 85.33,218.33 200.78,206.52 107.23,-11.03 181.14,42.21 266.6,80.43 86.59,38.62 164.81,73.63 215.29,170.23 43.95,84.39 150.86,145.3 242.6,102.49 97.51,-45.45 183.24,-31.22 276.24,-19.92 202.21,24.54 394.45,6.56 561.49,-126.6 25.81,-20.63 58.02,-33.2 79.91,-45.33 24.15,3.63 37.51,5.45 50.75,7.66 165.1,27.2 252.09,-11.02 308.14,-155.45 30.43,-78.37 79.64,-140.55 123.67,-208.88 66.13,-102.33 129.56,-208.3 178.06,-319.72 61.78,-141.66 69.88,-291.97 0.48,-435.17z"/>
   <path class="fil1" d="M21330.04 13523.63c16.88,-11.19 53.68,-9.65 72.09,2.05 59.13,37.79 57.59,70.56 -4.03,174.86 -29.84,-38.61 -61.77,-71.54 -82.13,-110.71 -8.62,-16.44 0,-56.87 14.07,-66.2z"/>
   <path class="fil1" d="M20607.37 13301.78c32.65,-25.54 70,-35.14 111.26,-19.96 23.05,8.53 35.97,53.83 15.77,65.69 -44.34,25.92 -91.06,47.82 -142.8,74.46 -46.4,-67.9 -16.05,-95.65 15.77,-120.19z"/>
   <path class="fil1" d="M5687.07 12308.16c7.08,-74.62 29.69,-107.38 70.67,-102.64 54.82,6.44 94.27,60.67 84.78,116.28 -8.49,48.81 -52.01,82.01 -101.22,77.11 -39.17,-3.75 -59.29,-37.51 -54.23,-90.75z"/>
   <path class="fil1" d="M4772.79 12611.56c21.89,-18.94 60.51,-35.81 86.16,-29.96 93.16,21.62 100.24,84.34 18.7,178.61 -31.54,-20.36 -66.13,-39.05 -96.25,-63.16 -29.36,-23.56 -37.62,-60.4 -8.61,-85.49z"/>
   <path class="fil1" d="M4759.82 13584.97c-17.7,1.82 -42.53,-5.85 -54.54,-18.26 -42.37,-44.23 -47.27,-165.09 -9.05,-205.13 12.45,-12.97 34.42,-16.6 45.73,-21.74 70.43,1.26 127.15,48.65 134.26,105.81 7.71,60.94 -50.03,132.76 -116.4,139.32z"/>
   <path class="fil1" d="M5429.25 14140.17c-55.65,-49.76 -68.77,-112.8 -56.91,-183.47 8.81,-52.29 33.87,-65.69 120.07,-64.7 43.64,183.75 42.93,186.12 -63.16,248.17z"/>
   <path class="fil1" d="M6445.47 14063.5c-85.21,-52.57 -105.88,-131.9 -104.18,-221.14 0.67,-41.98 54.07,-72.77 86.99,-51.31 51.74,33.72 96.08,77.67 98.57,141.22 2.1,54.27 -24.11,101.66 -81.38,131.23z"/>
   <path class="fil1" d="M7345.77 13031.98c-21.19,51.3 -74.35,70.55 -135.53,49.21 -81.7,-28.46 -104.74,-73.91 -73.76,-155.21 8.94,-23.84 29.41,-43.2 47.12,-68.3 42.41,11.85 83.39,16.99 118.37,34.42 50.2,25.1 65.81,86.44 43.8,139.88z"/>
   <path class="fil1" d="M7719.87 11678.62c-8.78,134.14 -29.72,162.01 -108.62,157.26 -99.12,-6 -124.1,-41.38 -108.37,-156.71 67.94,-30.95 136.52,-41.54 216.99,-0.55z"/>
   <path class="fil1" d="M8484.67 10941.44c-85.33,-36.13 -126.2,-110.31 -186.71,-174.86 32.64,-30.12 51.3,-47.55 69.28,-64.15 148.26,110.71 155.34,124.67 117.43,239.01z"/>
   <path class="fil1" d="M9678.79 10762.67c-8.93,11.42 -41.3,18.7 -53.28,11.58 -77.11,-46.72 -101.38,-159.68 -48.26,-229.95 13.01,-17.28 44.51,-20.64 89.8,-40 18.14,80.47 34.31,132.17 39.61,184.89 2.53,23.84 -12.14,53.4 -27.87,73.48z"/>
   <path class="fil1" d="M11096.98 10786.11c-21.19,4.58 -55.65,-7.12 -69.72,-23.87 -19.81,-23.56 -33.48,-57.99 -35.58,-88.66 -1.38,-19.52 20.64,-55.77 36.25,-58.14 28.18,-4.47 68.45,1.94 87.03,20.47 20.36,20.24 21.9,59.41 33.87,97.2 -17.82,19.52 -32.09,48.53 -51.85,53z"/>
   <path class="fil1" d="M12454.1 10757.65c-85.34,-69.56 -56.21,-151.7 -61.11,-258.81 108.93,47 125.37,118.26 156.32,193.28 -35.69,24.54 -65.96,45.45 -95.21,65.53z"/>
   <path class="fil1" d="M9586.9 15549.74c41.02,-6.83 80.71,-2.64 90.9,64.71 -31.22,2.64 -61.77,9.44 -91.06,5.69 -14.19,-1.66 -25.77,-23.28 -38.62,-35.81 12.85,-12.02 24.39,-32.21 38.78,-34.59z"/>
   <path class="fil1" d="M8971.02 16127.83c4.9,-18.42 33.72,-35.97 55.06,-42.68 11.3,-3.48 32.65,15.05 44.62,28.18 7.39,8.22 8.66,24.94 7.67,37.51 -2.05,24.66 -7.55,49.2 -11.86,75.13 -87.39,-31.06 -108.06,-49.48 -95.49,-98.14z"/>
   <path class="fil1" d="M9759.22 16823.47c-24.26,48.65 -69.28,73.75 -110.55,61.89 -11.3,-3.2 -25.41,-12.96 -29.44,-23.12 -20.36,-52.01 21.62,-139.32 76.56,-162.72 5.89,-2.53 12.96,-1.82 19.36,-2.53 11.47,5.73 25.54,8.93 33.92,17.59 31.77,32.88 28.85,71.38 10.15,108.89z"/>
   <path class="fil1" d="M10583.43 16799.08c-19.36,13.08 -70,7.23 -87.43,-9.76 -56.32,-54.82 -63.04,-163.71 -13.95,-197.03 22.61,-15.34 72.53,-19.96 90.91,-5.3 32.8,25.93 50.91,70.28 78.38,111.82 -25.77,40.71 -39.61,81.3 -67.91,100.27z"/>
   <path class="fil1" d="M11153.46 16035.66c-67.23,4.03 -135.57,-45.45 -134.58,-97.19 1.54,-76.56 55.49,-142.37 117.27,-143.04 62.76,-0.87 108.77,51.86 106.95,122.57 -1.54,64.93 -39.49,114.74 -89.64,117.66z"/>
   <path class="fil1" d="M11432.86 15010.27c-45.46,-28.61 -88.26,-55.65 -128.02,-80.75 5.73,-84.22 43.67,-135.92 98.34,-177.07 47.27,-35.57 112.8,-7.55 119.04,51.19 7.87,74.14 9.37,147.07 -89.36,206.63z"/>
   <path class="fil1" d="M12302.8 13990.73c-41.43,61.9 -115.34,54.62 -142.81,-11.86 -12.8,-31.1 -23.67,-63.75 -30.51,-96.79 -12.8,-63 17.71,-118.66 67.35,-129.37 60.67,-13.12 125.49,26.05 141.66,86.44 3.52,12.81 3.91,26.64 7.67,54.51 -10.87,24.98 -21.74,64.58 -43.36,97.07z"/>
   <path class="fil1" d="M13389.25 13093.6c-11.66,46.72 -23,98.14 -78.77,107.35 -19.37,3.2 -51.58,-16.72 -64.15,-35.26 -45.29,-67.35 -46.56,-127.86 -11.42,-169.44 4.35,-5.02 9.88,-9.33 15.77,-12.69 34.58,-19.92 71.78,-53.67 109.88,-20.63 22.17,19.41 28.3,57.31 36.08,74.9 -3.59,28.85 -4.19,42.65 -7.39,55.77z"/>
   <path class="fil1" d="M14135.83 11875.49c-4.23,26.2 -12.01,52.57 -22.64,76.99 -10.16,23.28 -26.21,44.19 -42.93,71.66 -30.95,-9.76 -57.74,-13.95 -79.76,-26.2 -57.7,-32.22 -66.79,-55.5 -50.75,-113.68 5.46,-19.48 10.32,-39.44 19.09,-57.43 23.44,-48.1 71.66,-73.91 114.35,-63.59 43.08,10.47 71.38,58.42 62.64,112.25z"/>
   <path class="fil1" d="M14315.39 10967.92c-83.51,17.83 -121.3,-0.43 -128.02,-60.39 -7.62,-67.75 12.85,-110.99 69.05,-130.51 17.16,-5.97 62.29,14.66 63.44,25.97 4.59,52.4 -1.82,105.8 -4.47,164.93z"/>
   <path class="fil1" d="M15638.33 12850.29c-21.31,-11.47 -36.96,-33.6 -73.76,-68.9 52.06,-15.17 70.28,-24.11 89.25,-25.49 36.01,-2.53 65.65,11.7 77.94,47.94 3.8,11.15 3.09,29.29 -3.75,37.95 -25.54,32.21 -60.4,24.38 -89.68,8.5z"/>
   <path class="fil1" d="M15496.16 14217.45c7.78,-44.23 40.82,-65.81 88.77,-58.3 50.51,7.82 74.46,35.29 70.27,80.59 -4.86,54.94 -42.37,88.26 -93.28,82.84 -48.93,-5.3 -75.84,-48.26 -65.76,-105.13z"/>
   <path class="fil1" d="M15285.84 15740.77c-44.74,-6.72 -73.47,-32.93 -75.41,-77.67 -1.54,-32.37 4.43,-65.97 13.08,-97.35 9.37,-33.87 31.66,-58.53 71.66,-54.66 37.67,3.64 58.46,27.9 66.96,62.76 4.58,19.09 5.29,39.17 7.11,53.13 -1.38,19.09 -1.7,32.48 -3.36,45.61 -5.97,46.56 -38.77,74.42 -80.04,68.18z"/>
   <path class="fil1" d="M15743.34 16846.91c-56.71,17.11 -106.83,-3.09 -145.84,-45.18 -34.74,-37.39 -46.01,-85.06 -22.18,-130.51 9.21,-17.59 47,-37.39 61.78,-31.54 71.82,29.01 121.86,81.58 139.56,165.92 -9.88,12.97 -18.69,36.96 -33.32,41.31z"/>
   <path class="fil1" d="M16742.09 17073.34c-26.99,16.72 -62.72,19.53 -82.25,24.94 -27.03,-2.37 -40.59,-2.21 -53.67,-4.74 -39.05,-7.39 -58.85,-35.81 -56.21,-71.11 1.82,-23.43 15.77,-55.92 34.31,-65.96 47.94,-26.05 103.6,-35.81 154.34,-7.67 19.96,11.15 41.43,39.33 41.7,60.12 0.44,21.89 -18.53,52.41 -38.22,64.42z"/>
   <path class="fil1" d="M17439.03 16203.13c27.59,62.45 27.71,126.16 -2.25,189.36 -14.9,31.07 -39.6,62.57 -74.9,48.65 -33.44,-13.28 -81.14,-42.8 -83.95,-69.32 -4.31,-40.28 19.13,-87.43 41.03,-125.77 24.26,-42.37 64.82,-65.25 120.07,-42.92z"/>
   <path class="fil1" d="M16884.9 15734.6c6.72,-45.18 41.81,-66.64 106.36,-64.82 63.75,1.82 96.2,29.41 91.34,77.82 -5.53,55.06 -39.88,84.47 -92.57,79.45 -70.98,-6.8 -112.53,-43.36 -105.13,-92.45z"/>
   <path class="fil1" d="M15871.21 10041.78c-34,-35.81 -60.79,-54.66 -74.19,-80.43 -14.74,-28.46 17.82,-65.69 53.67,-67.79 39.05,-2.21 70.16,18.7 70.44,54.27 0.15,25.65 -26.09,51.42 -49.92,93.95z"/>
   <path class="fil1" d="M16875.01 10260.86c-4.62,19.92 -29.05,44.19 -49.4,49.61 -30.63,8.38 -62.61,-37.08 -47.83,-67.63 9.65,-19.64 33.32,-32.49 64.59,-61.34 16.6,37.51 36.79,61.22 32.64,79.36z"/>
   <path class="fil1" d="M18070.68 10721.25c-39.88,5.45 -89.57,-30.4 -86.8,-62.61 3.95,-41.82 48.42,-83.24 112.25,-90.08 13.72,13.96 44.51,31.94 53.56,57.87 14.78,41.42 -29.13,88.14 -79.01,94.82z"/>
   <path class="fil1" d="M18812.16 12021.33c-17.04,9.92 -37.39,13.8 -66.52,24.15 -16.17,-12.41 -46.88,-24.42 -51.9,-43.12 -5.37,-20.47 8.11,-50.59 22.18,-70.39 10.19,-14.23 35.13,-26.36 52.45,-25.1 23.71,1.82 56.04,10.87 67.47,28.3 19.8,30.24 11.02,65.81 -23.68,86.16z"/>
   <path class="fil1" d="M18882.87 13215.18c-41.03,-1.39 -58.62,-28.74 -63.91,-64.55 -6.8,-46.71 20.67,-84.5 60.83,-87.58 42.53,-3.32 75.69,28.85 76.12,74.19 0.55,46 -30.12,79.32 -73.04,77.94z"/>
   <path class="fil1" d="M19276.61 14635.62c-14.94,19.36 -36.83,38.06 -59.4,44.74 -13.24,3.91 -36.56,-13.12 -49.64,-26.21 -13.64,-13.55 -24.39,-32.76 -29.84,-51.34 -13.64,-47.39 -12.3,-95.33 25.53,-131.34 11.42,-10.59 46.4,-15.34 54.62,-6.96 31.27,31.51 56.09,69.45 78.22,98.46 -8.62,34.98 -8.34,58.26 -19.49,72.65z"/>
   <path class="fil1" d="M19943.67 15031.46c-12.29,12.25 -46.6,7.66 -69.6,2.76 -17.98,-3.75 -34.86,-17.82 -49.76,-30.11 -9.33,-7.79 -14.23,-21.03 -30.28,-46.13 90.63,-79.21 144.19,-77.67 162.33,1.66 5.14,22.73 1.66,57.31 -12.69,71.82z"/>
   <path class="fil1" d="M21052.74 14870.67c-66.64,10.2 -94.27,-35.41 -110.16,-105.53 118.54,-84.66 119.48,-81.7 225.17,-51.9 -14.74,107.95 -38.77,145.73 -115.01,157.43z"/>
   <path class="fil1" d="M6129.24 12898.51c9.76,0.87 27.15,17.31 25.88,23.71 -6.24,31.23 -12.68,64.58 -29.01,91.07 -10.43,16.71 -38.34,22.84 -85.88,48.65 16.2,-71.1 22.72,-113.79 37.23,-153.67 3.2,-8.78 34.15,-11.15 51.78,-9.76z"/>
   <path class="fil2" d="M21256.72 13429.76c-128.25,0.43 -161.77,-11.27 -347.77,-126.05 164.54,-23.71 272.76,-3.75 347.77,126.05z"/>
   <path class="fil2" d="M20335.21 13800.1c0,-204.42 16.56,-240.23 123.23,-294.34 3.2,11.7 12.57,26.37 8.66,34.59 -39.17,80.15 -80.59,159.36 -131.89,259.75z"/>
   <path class="fil2" d="M6002.48 12478.67c78.61,79.49 89.64,121.03 75.53,346.36 -58.14,-82.53 -88.81,-131.46 -125.05,-175.96 -37.67,-46.01 -81.03,-87.71 -121.03,-130.36 70.16,-95.37 107.78,-103.31 170.55,-40.04z"/>
   <path class="fil2" d="M5266.53 13902.99c-166.32,-53.24 -253.23,-110.28 -371.18,-247.63 7.95,-24.11 11.15,-37.35 16.56,-49.48 78.54,-173.87 79.49,-196.04 -63.83,-309.68 -81.14,-64.42 -102.92,-140.27 -90.51,-232.6 8.93,-66.48 27.63,-131.89 44.19,-207.9 26.8,-1.5 52.17,-2.37 77.39,-4.31 20,-1.38 39.88,-4.03 69.44,-7.23 24.43,-43.4 52.18,-89.41 76.72,-136.95 20.24,-38.9 21.3,-82.1 -7.55,-115.3 -60.51,-69.44 -31.5,-124.78 21.74,-176.79 104.03,-101.54 231.18,-140.27 373.55,-125.37 46.32,4.9 91.06,25.09 140.15,39.32 4.47,28.46 8.62,54.51 12.26,77.83 -15.02,11.42 -24.39,22.13 -36.13,26.87 -68.97,27.47 -139.4,51.74 -208.02,80.32 -350.82,146.56 -406.15,597.06 -281.65,854.76 84.5,174.98 199.4,325.01 398.49,390.66 -62.57,52.29 -117.27,98.06 -171.62,143.48z"/>
   <path class="fil2" d="M5752.88 13998.12c-120.59,-38.1 -122.29,-32.64 -178.1,-195.09 233.75,27.07 457.66,-15.73 682.28,-52.41 -4.19,58.69 -8.22,117.39 -12.29,176.52 -160.32,90.9 -317.47,126.04 -491.89,70.98z"/>
   <path class="fil2" d="M13073.29 10035.53c-42.49,61.46 -84.78,123.68 -131.46,181.82 -42.53,52.84 -86.04,107.07 -138.18,149.48 -67.9,55.18 -144.62,99.25 -223.39,152.09 -36.64,-27.31 -65.65,-56.16 -100.39,-73.2 -88.66,-43.08 -142.21,-13.79 -176.95,90.91 -4.15,12.69 -8.62,25.25 -15.62,45.77 -113.63,56.87 -237.18,73.2 -369.2,61.74 -135.13,-11.86 -271.33,-10.6 -407.02,-15.18 -115.02,-3.8 -227.15,-2.93 -328.65,-80.75 -75.14,-57.59 -202.05,-42.65 -259.08,34.46 -62.73,84.47 -141.66,100.67 -230.47,102.89 -163.12,3.91 -326.83,9.32 -489.56,0 -164.38,-9.33 -323.62,-44.47 -436.27,-184.62 -16.32,-20.2 -42.25,-34.59 -66.24,-46.44 -74.43,-36.64 -145.45,-19.92 -197.86,47.15 -20.6,26.48 -35.85,57.31 -57.16,92.01 -269.24,54.27 -536.43,136.36 -827.13,132.33 -31.94,-28.58 -65.26,-61.5 -101.82,-90.35 -65.37,-51.74 -121.57,-54.39 -183.47,-0.67 -40.12,34.7 -95.65,78.77 -99.68,122.52 -7.95,88.42 -67.35,130.12 -117.27,183.24 -139.84,148.49 -282.21,294.62 -420.11,445.09 -45.45,49.48 -80.04,109.16 -126.2,173.43 -29.57,6.84 -68.18,15.61 -106.68,24.55 -63.67,44.9 -90.35,168.29 -38.06,234.81 40.99,52.02 63.59,101.5 55.49,166.76 -32.33,262.84 -73.91,523.3 -184.18,774.13 -50.2,5.29 -96.21,10.19 -144.47,15.33 -59.92,39.05 -81.69,105.14 -104.58,168.3 -10.99,30.55 -21.18,74.74 -7.39,99.01 97.35,171.22 -30.24,298.41 -85.61,435.32 -49.88,123.68 -156.72,202.73 -278.29,257.55 -71.11,31.89 -140.43,50.59 -209.01,-9.92 -31.11,-27.32 -69.88,-28.58 -108.06,-12.97 7.51,-9.21 14.23,-19.37 23.4,-25.93 472.87,-332.12 676.98,-816.66 768.44,-1362.85 70.15,-419.83 186.83,-822.51 415.52,-1186.02 198.3,-314.97 476.31,-543.1 812.47,-690.18 153,-66.95 327.11,-89.24 493.9,-118.97 268.69,-47.94 540.98,-64.97 813.3,-45.45 189.48,13.56 379,35.57 566.39,66.4 451.06,74.03 904.36,104.43 1361.03,91.3 268.57,-7.78 523.55,-72.48 771.05,-174.97 287.94,-119.09 493.47,-331.73 669.87,-579.08 22.45,-31.38 45.57,-62.17 74.7,-101.93 50.23,207.74 35.29,319.16 -56.05,451.09z"/>
   <path class="fil2" d="M9886.81 15876.69c-56.6,-68.73 -102.92,-119.76 -117.11,-230.19 119.92,54.23 144.3,118.65 117.11,230.19z"/>
   <path class="fil2" d="M9385.99 15565.2c5.3,0.16 10.44,7.82 36.92,29.01 -176.64,88.69 -280.55,226.71 -374.26,398.37 -24.78,-32.65 -50.87,-50.91 -50.32,-68.46 6.45,-189.36 195.93,-363.23 387.66,-358.92z"/>
   <path class="fil2" d="M9493.34 16816.91c-46.84,-13.52 -87.59,-17.28 -119.36,-35.97 -125.34,-73.75 -213.91,-185.33 -294.34,-303.43 -10.87,-16.01 -20.08,-37.51 -19.53,-56.05 0.59,-17.43 10.99,-40.27 24.82,-49.92 13.8,-9.76 36.96,-7.23 56.17,-7.94 5.33,-0.12 12.13,6.44 16.04,11.58 94.43,124.22 227.55,188.65 368.69,241.22 11.74,4.19 20.36,16.44 40.71,33.87 -21.9,49.64 -45.18,102.92 -73.2,166.64z"/>
   <path class="fil2" d="M9854.2 16877.58c-1.1,-18.26 -5.61,-37.95 -3.08,-56.76 5.18,-40.16 13.79,-79.92 22.57,-128.42 39.21,-11.46 76.28,-29.17 114.5,-31.93 97.19,-7.12 185.45,-35.14 270.07,-83.52 38.22,-22.05 83.95,-30.83 126.76,-44.9 -69.29,286.67 -254.74,408.69 -530.82,345.53z"/>
   <path class="fil2" d="M13930.54 12217.38c-67.58,286 -200.78,532.35 -451.61,698.28 -63.87,-15.73 -125.76,-50.04 -177.66,-38.73 -61.34,13.35 -114.19,66.36 -170.67,102.05 0.04,76.68 0,143.2 0,219.87 -202.72,223.67 -444.1,407.86 -711.09,561.93 -58.41,-25.1 -112.52,-52.85 -169.56,-71.82 -90.35,-30.12 -183.23,28.18 -194.81,123 -6.41,53.12 -1.11,107.9 -1.11,169.29 -95.93,94.82 -207.9,185.84 -294.9,296.43 -87.15,110.99 -149.48,241.5 -221.02,360.43 -207.98,42.37 -208.02,42.37 -313.15,286.39 85.09,121.58 70.43,262.41 43.36,403.83 -23.01,119.32 -48.66,238.25 -70.12,342.44 -27.63,19.64 -37.94,32.88 -49.52,34.31 -157.55,17.27 -215.85,135.8 -200.79,260.15 30.32,249.2 -127.15,402.56 -239.68,589.82 -108.73,-28.57 -207.74,-82.56 -312.2,-32.92 24.42,-35.81 44.22,-77.39 76.83,-102.49 309.88,-238.57 455.56,-566.07 523.03,-939.5 41.03,-227.42 77.12,-456.63 136.64,-679.47 96.4,-361.14 275.8,-679.43 545.05,-943.1 171.65,-168.02 366.31,-303.82 581.32,-410.78 176.09,-87.58 356.12,-168.29 527.62,-264.22 99.84,-55.93 188.37,-133.32 278.29,-205.53 171.26,-137.51 316.24,-298.96 429.76,-487.77 101.5,-168.85 203.27,-337.43 304.77,-505.84 127.03,69.29 159.4,114.9 131.22,233.95z"/>
   <path class="fil2" d="M14133.42 11670.39c-78.61,21.62 -136.91,37.51 -208.73,57.16 -1.38,-31.11 -8.65,-56.76 -2.8,-79.05 48.69,-182.8 98.02,-365.45 151.57,-546.71 8.11,-27.63 34.59,-59.68 60.24,-69.72 35.3,-13.68 85.77,41.98 87.43,89.09 6.56,185.29 -42.1,361.25 -87.71,549.23z"/>
   <path class="fil2" d="M14493.57 9591.55c-51.7,300.07 -105.13,599.87 -159.08,899.51 -8.34,46.56 -18.42,93.55 -34.59,137.9 -15.89,43.63 -49.37,61.77 -97.47,38.06 -34.26,-64.27 -22.01,-132.88 -5.41,-197.47 81.42,-314.97 166.2,-629.11 251.26,-943.25 4.74,-17.27 21.46,-31.5 46.12,-65.93 0.04,57.98 5.3,95.61 -0.83,131.18z"/>
   <path class="fil2" d="M16415.7 17016.58c-195.77,57.71 -367.42,-21.46 -539.91,-83.79 -6.24,-33.32 -15.22,-53.83 -12.53,-72.53 14.39,-100.23 -33.2,-168.96 -108.06,-226.43 -53.67,-41.15 -105.57,-84.62 -157.7,-127.59 -91.3,-75.02 -159.52,-164.93 -194.11,-280.66 -34.98,-117.15 -73.2,-232.88 -74.19,-352.37 143.36,-146.67 163.71,-231.61 83.4,-400.86 -27.75,-58.41 -42.25,-113.79 -34.46,-175.96 28.33,-222.29 32.09,-447.58 85.65,-666.5 11.3,-46.01 26.48,-91.62 44.86,-135.26 15.81,-37.39 41.3,-63.16 83.12,-82.13 171.22,-77.67 197.42,-173.75 99.28,-332.13 -6.95,-11.3 -11.3,-24.11 -21.89,-47.27 116.71,-337.03 172.88,-689.23 75.13,-1039.22 97.79,-115.14 106.13,-144.42 75.57,-225.17 -18.06,-47.83 -49.05,-80.44 -99.24,-93.72 -74.03,-19.48 -109.61,-74.7 -133.32,-142.05 -38.18,-109.2 -78.5,-217.54 -115.73,-326.99 -5.41,-15.77 1.54,-35.69 4.03,-74.18 300.39,301.61 492.48,631.52 504.61,1051.47 12.02,421.26 -71.77,827.41 -202.72,1222.15 -101.06,304.65 -188.21,611.96 -237.03,927.52 -45.73,296 -56.04,593.86 39.05,889.19 94.94,295.01 286.68,490.78 567.06,600.54 92.77,36.24 199.13,37.51 317.78,57.98 -18.97,53.12 -32.49,90.51 -48.65,135.96z"/>
   <path class="fil2" d="M17248.29 16543.75c-51.9,123.95 -107.95,245.96 -218.38,332.56 -109.32,85.61 -141.81,83.68 -282.64,-34.31 85.45,-54.94 170.67,-104.02 249.16,-161.89 75.89,-55.61 144.86,-120.47 233,-194.93 5.02,14.5 25.65,42.25 18.86,58.57z"/>
   <path class="fil2" d="M17157.77 15868.91c12.69,-8.26 41.82,-7.4 53.96,2.09 81.18,63.28 105.8,171.5 62.17,296.28 -54.51,-85.61 -100.51,-164.27 -135.93,-248.34 -5.29,-12.53 6.96,-41.69 19.8,-50.03z"/>
   <path class="fil2" d="M16781.02 15755.67c-5.57,10.2 -9.92,28.18 -17.19,29.44 -41.93,7.24 -84.74,10.6 -127.27,15.3 86.01,-78.61 86.01,-78.61 144.46,-44.74z"/>
   <path class="fil2" d="M20775.12 14910.71c-129.53,106.24 -282.09,130.35 -441.46,122.84 -80.86,-3.91 -161.06,-21.78 -244.58,-33.75 -23.83,-36.8 -45.73,-70.28 -67.19,-103.87 -45.45,-70.71 -111.69,-112.41 -189.91,-75.46 -101.23,47.71 -186.99,8.54 -273.71,-26.04 -62.29,-24.71 -118.26,-65.26 -180.99,-101.11 -3.2,-42.96 -4.07,-82.8 -9.48,-121.85 -10.04,-71.82 -47.55,-125.93 -111.7,-161.18 -29.56,-16.49 -60.51,-31.27 -87.82,-50.91 -74.74,-54.11 -122.73,-123.83 -132.21,-219.6 -19.09,-189.21 -42.65,-377.9 -63.44,-566.94 -8.77,-80.87 -15.06,-161.9 -23.71,-257.39 56.08,-61.93 121.73,-135.25 77.54,-252.24 -41.93,-29.17 -91.34,-63.32 -147.82,-102.37 4.35,-33.16 0.71,-69.84 14.39,-98.14 107.62,-223.12 90.47,-447.3 12.96,-673.35 -6.52,-19.09 -9.76,-39.32 -17.15,-69.84 94.98,-199.95 89.36,-229.64 -95.53,-295.33 -74.27,-26.48 -116.96,-70.98 -139.72,-134.7 -38.74,-108.33 -76.96,-218.76 -97.59,-331.57 -48.22,-265.33 -156.32,-504.61 -291.69,-734.53 -32.61,-55.37 -69.57,-107.38 -132.61,-118.25 -102.88,-17.55 -189.48,-71.54 -282.92,-110.16 -195.44,-80.87 -398.21,-131.89 -607.77,-163 -112.25,-16.6 -228.96,-25.1 -329.36,-96.32 -34.42,-24.54 -91.18,-25.97 -137.19,-24.27 -207.18,7.51 -403.27,-56.2 -603.89,-89.52 -71.54,-11.86 -121.58,-55.93 -158.81,-116.99 -38.9,-63.72 -95.81,-81.58 -171.11,-87 -216.95,-15.77 -332.68,-138.18 -346.47,-351.25 -3.48,-53.24 -0.59,-106.96 -0.59,-157.99 55.37,-12.52 71.54,20.64 90.51,47.16 200.67,278.84 477.3,437.26 807.05,513.38 158.42,36.53 317.62,66.92 475.17,110.28 202.05,55.81 412.2,87.86 621.05,113.08 432.99,52.45 782.39,257.54 1081.48,562.91 148.65,151.58 273.15,321.53 370.74,509.63 106.24,205.09 214.02,408.96 280.39,632.75 96.79,326.71 93.16,656.47 51.06,989.31 -4.19,33.59 -12.29,66.91 -14.78,100.66 -17.55,237.15 -36.56,474.06 -50.51,711.41 -16.68,284.97 37.82,554.22 192.72,798.12 25.37,39.72 51.46,83.24 87.82,110.99 180.04,137.74 375.8,245.25 605.28,273.27 121.07,14.78 243.32,29.72 364.94,29.01 86.87,-0.43 173.43,-28.18 260.58,-40.71 38.66,-5.45 81.42,-19.13 110.99,24.55 22.49,33.32 3.36,69.84 -52.96,116.28z"/>
   <path class="fil2" d="M21520.51 14023.06c-11.54,220.04 -111.1,403.23 -257.66,562.2 -35.69,38.78 -82.13,42.37 -122.57,4.86 72.53,-122.68 151.7,-240.23 213.48,-366.11 58.85,-119.64 63,-256.32 75.01,-402.84 31.51,22.17 56.33,30.12 60.24,44.07 14.94,51.58 34.31,105.69 31.5,157.82z"/>
   <path class="fil3" d="M14033.86 5164.79c-17.55,113.63 -42.25,227.66 -79.21,336.31 -41.26,121.58 -121.73,216.24 -263.11,219.6 -142.21,3.32 -246.12,-65.53 -307.47,-195.09 -50.59,-107.19 -64.42,-220.87 -56.75,-359.05 -2.65,-124.38 27.07,-262.52 97.46,-390.54 105.85,-192.29 356.68,-212.64 487.46,-31.94 88.85,122.57 146.01,264.23 121.62,420.71z"/>
   <path class="fil3" d="M14575.59 5759.04c-101.94,-31.66 -185.34,-91.46 -237.9,-180.31 -91.86,-155.73 -131.34,-326.67 -91.34,-506.83 19.13,-85.33 52.56,-167.62 79.76,-251.26 45.49,-139.72 146.55,-205.25 288.92,-215.29 33.76,-2.37 67.63,-4.74 119.09,-8.22 213.2,1.11 390.39,92.17 485.36,309.4 40.48,92.45 66.36,191.3 95.77,288.22 7.71,24.94 9.65,54.5 4.63,80.15 -70.24,367.42 -373.55,599.16 -744.29,484.14z"/>
   <path class="fil0" d="M13783.04 4059.64c-235.77,-162.57 -529.32,-45.3 -614.77,294.34 227.7,-66.21 478.68,-173.44 604.29,-258.22 7.95,-5.3 7.12,-23.71 10.48,-36.12z"/>
   <path class="fil0" d="M14628.83 4251.21c137.94,-30.51 267.42,5.85 396.55,46.6 72.09,22.69 128.57,1.66 177.62,-62.76 -44.31,-79.76 -126.44,-105.97 -201.89,-115.73 -179.13,-23.28 -361.41,-40.32 -566.11,61.22 64.74,30.95 98.89,49.64 134.85,63.72 18.15,6.95 40.56,11.02 58.98,6.95z"/>
   <path class="fil0" d="M14806.88 5098.74c-81.85,-70 -174.46,-38.77 -197.86,67.51 -5.85,26.05 -7.11,53.4 -11.18,86.16 4.9,27.75 6.16,62.45 17.71,93.28 30.31,79.6 145.01,103.32 202.6,44.19 76.99,-79.21 71.54,-220.43 -11.27,-291.14z"/>
   <path class="fil0" d="M13684.46 5032.97c-6.28,-1.22 -13,-0.12 -17.43,-0.12 -8.65,2.1 -16.2,2.22 -21.62,5.58 -75.73,47.94 -92.05,191.18 -25.1,249.59 17.43,15.34 50.6,22.57 74.15,18.98 59.01,-9.53 95.53,-69.33 91.9,-138.34 -3.6,-68.18 -44.75,-123.12 -101.9,-135.69z"/>
   <path class="fil2" d="M20395.16 11898.21c-215.41,27.47 -309.71,-53.24 -294.77,-246.51 3.08,-40 12.25,-80.04 22.57,-119.09 31.81,-119.48 105.01,-185.45 263.55,-175.69 23.87,185.73 65.25,362.96 8.65,541.29z"/>
   <path class="fil2" d="M19617.67 9900.12c154.35,121.3 261.02,254.62 370.47,409.68 -39.17,19.2 -65.41,42.52 -92.01,42.92 -38.78,0.55 -78.82,-12.41 -116.6,-24.55 -206.48,-66.75 -256.95,-186.12 -161.86,-428.05z"/>
   <path class="fil2" d="M17091.25 9371.12c70.99,-35.57 142.1,-73.91 232.13,-64.3 30.04,93.71 -13.08,147.27 -81.42,187.42 -53.51,31.62 -104.42,14.23 -151.14,-18.97 -33.28,-23.56 -34.03,-86.72 0.43,-104.15z"/>
   <path class="fil2" d="M14137.34 2163.32c8.81,-101.07 29.13,-198.69 64.82,-289.04 243.19,-40.72 652.98,54.1 881.24,204.54 -36.96,127.3 -95.81,248.21 -183.08,349.99 -73.91,86.04 -176.67,123.12 -292.84,105.41 -165.72,-25.38 -307.3,-96.76 -420.66,-222.96 -39.01,-43.64 -54.39,-90.2 -49.48,-147.94z"/>
   <path class="fil2" d="M13116.57 2060.99c119.6,-46.01 239.24,-93.56 362.48,-127.43 81.03,-22.21 144.03,52.57 123.67,137.19 -26.6,110.83 -82.52,201.18 -198.8,237.19 -57.87,17.83 -117.43,30.39 -144.35,37.23 -156,3.48 -206.48,-46.72 -209.4,-169.28 -1.27,-53.4 17.83,-96.09 66.4,-114.9z"/>
   <path class="fil2" d="M12001.78 3075.08c41.93,81.3 32.88,148.53 -4.79,213.19 -8.34,14.39 -33.16,30.12 -47.66,27.91 -28.7,-4.35 -55.5,-20.91 -87.59,-34.31 29.88,-86.6 59.96,-155.73 140.04,-206.79z"/>
   <path class="fil2" d="M11084.68 9593.21c22.49,-3.32 48.82,-12.09 74.19,-10.04 73.08,5.58 145.85,15.5 220.31,24 40.48,79.08 32.22,147.54 -11.74,213.35 -59.2,88.81 -195.76,115.73 -285.4,53.52 -19.37,-13.52 -34.59,-41.11 -40,-64.82 -14.07,-62.34 -3.09,-106.25 42.64,-216.01z"/>
   <path class="fil2" d="M9674.05 9239.9c156.44,-35.85 237.3,-28.85 427.06,41.54 -10.31,49.8 -15.45,89.96 -27.31,127.86 -20.75,66.64 -70.83,95.26 -138.89,95.26 -20.2,0 -40.59,-0.83 -60.79,-1.54 -205.92,-6.41 -236.2,-46.44 -200.07,-263.12z"/>
   <path class="fil2" d="M8410.48 9491.16c102.81,-49.64 208.18,-93.71 315.81,-141.54 74.06,58.74 51.18,111.15 35.96,162.33 -19.92,66.92 -52.13,129.36 -118.49,155.73 -54.9,21.89 -116.56,31.66 -176.12,36.83 -53.68,4.59 -96.6,-38.49 -112.81,-97.07 -13.08,-47.82 2.81,-90.75 55.65,-116.28z"/>
   <path class="fil2" d="M7392.92 10223.36c62.84,58.53 54.74,118.21 20.47,170.94 -40.43,62.01 -87.86,121.02 -139.99,173.71 -56.33,57.03 -124.23,80.75 -220.75,9.21 103.64,-137.07 201.5,-262.01 340.27,-353.86z"/>
   <path class="fil2" d="M6755.98 11231.87c26.2,-91.62 64.94,-177.07 153.91,-225.06 21.22,-11.3 57.03,-18.81 74.19,-8.49 24.15,14.78 37.23,47.82 55.33,73.47 -15.18,59.13 -23.83,112.25 -42.8,161.46 -23.28,60.24 -72.22,93.16 -137.08,103.2 -71.22,11.15 -122.52,-38.06 -103.55,-104.58z"/>
   <path class="fil2" d="M6491.44 12263.66c80.31,15.06 106.4,67.51 103.2,118.42 -3.87,64.94 -27.19,131.46 -102.65,156.55 -29.68,-92.17 -29.68,-92.17 -0.55,-274.97z"/>
   <path class="fil2" d="M12911.83 11247.91c35.58,-109.48 72.37,-218.49 110.71,-326.98 3.8,-10.87 19.13,-17.71 40.04,-36.13 15.45,30.55 40.71,57.75 40.99,85.06 0.83,101.38 -79.92,232.01 -184.62,313.86 -2.61,-11.97 -10.48,-25.65 -7.12,-35.81z"/>
   <path class="fil2" d="M12416.71 11986.75c76.44,-40.43 149.48,-88.1 220.86,-137.19 18.81,-12.85 28.3,-39.33 41.26,-60.79 6.17,0.4 12.14,0.99 18.15,0.99 61.22,-0.87 126.48,-4.19 158.81,60.79 32.37,64.98 17.43,130.23 -18.54,191.57 -49.37,83.68 -123.12,142.93 -204.7,189.64 -60.51,34.59 -130.07,26.49 -196.04,4.15 -58.97,-19.92 -89.8,-57.7 -92.01,-117.82 -2.1,-57.43 15.88,-101.34 72.21,-131.34z"/>
   <path class="fil2" d="M11688.03 12503.5c66.24,-78.22 140.27,-147.51 246.36,-206.48 94.82,92.68 68.06,184.86 31.38,272.88 -33.16,79.32 -113.36,91.58 -186.99,103.43 -43.32,6.84 -79.33,-16.87 -100.51,-55.92 -21.19,-39.01 -19.8,-79.05 9.76,-113.91z"/>
   <path class="fil2" d="M11258.32 13038.94c35.25,-66.8 78.73,-123.83 150.27,-157.71 112.53,-53.28 205.96,-1.54 213.35,122.02 0.72,13.36 0,26.91 0,45.17 -8.93,27.87 -16.48,61.23 -30.27,91.62 -57,126.44 -164.38,158.1 -281.22,84.74 -81.7,-51.14 -95.93,-102.72 -52.13,-185.84z"/>
   <path class="fil2" d="M10877.22 13581.77c72.09,-60.28 152.53,-78.93 256.83,-2.1 -17.43,66.37 -27.75,125.77 -48.65,181.11 -36.25,96.2 -134.27,157.27 -236.2,152.4 -44.07,-1.93 -79.49,-24.66 -87.16,-69.01 -19.2,-111.42 35.14,-195.37 115.18,-262.4z"/>
   <path class="fil2" d="M10625.96 14214.09c34.86,-54.79 102.05,-75.58 160.47,-56.76 48.54,15.77 93.83,69.17 84.66,125.21 -13.24,78.93 -34.19,158.81 -66.79,231.46 -29.69,66.36 -100.95,82.68 -168.58,93.99 -15.77,-35.3 -31.1,-70.83 -47.27,-105.85 -48.38,-103.99 -19.13,-198.81 37.51,-288.05z"/>
   <path class="fil2" d="M10493.91 15073.27c14.78,-85.88 31.66,-171.61 90.35,-262.12 78.38,58.14 97.87,119.91 89.09,189.91 -10.83,86.32 -13.4,178.18 -93.83,236.76 -14.78,10.75 -43.36,22.45 -53.4,15.61 -19.37,-13.24 -40.16,-38.22 -42.41,-59.96 -3.71,-39.45 3.52,-80.43 10.2,-120.2z"/>
   <path class="fil2" d="M16383.92 15455.87c-5.45,43.24 -45.61,68.34 -88.42,63.76 -89.24,-9.92 -135.8,-49.8 -160.35,-130.12 -23.71,-77.23 -8.1,-150.59 33.04,-212.92 23.56,-35.69 71.11,-57.59 111.15,-79.48 29.56,-16.17 34.82,-11.15 136.36,44.07 -9.92,101.5 -18.7,208.33 -31.78,314.69z"/>
   <path class="fil2" d="M16578.58 14538.7c-67.79,-6.99 -88.58,-49.09 -99.72,-96.79 -17.71,-75.69 -3.48,-148.34 33.44,-215.41 49.64,-90.08 111.14,-107.79 223.67,-61.78 -15.89,140.98 -82.97,260.35 -157.39,373.98z"/>
   <path class="fil2" d="M16467.28 11534.98c0.99,-11.42 14.62,-21.74 23.99,-34.7 60.08,-6.13 76.84,47.55 98.57,83.4 129.29,212.76 260.04,425.4 302.17,693.1 -21.62,-13.4 -49.09,-22.17 -63.75,-40.87 -91.86,-117.66 -180.83,-237.42 -270.63,-356.67 -76.95,-102.33 -101.1,-219.04 -90.35,-344.26z"/>
   <path class="fil2" d="M16215.9 11037.49c17.71,18.69 38.3,34.18 50.59,54.66 16.21,26.76 25.65,57.31 36.25,82.41 -42.26,44.34 -78.06,44.07 -106.8,5.29 -35.26,-47.39 -38.89,-95.77 19.96,-142.36z"/>
   <path class="fil2" d="M15677.26 10395.52c-35.02,10.6 -61.5,28.19 -81.19,22.34 -36.64,-10.75 -78.61,-27.35 -101.61,-55.22 -47.83,-57.75 -25.81,-111.14 43.2,-160.63 62.64,46.4 101.65,110.16 139.6,193.51z"/>
   <path class="fil2" d="M16912.21 13539.91c-23.28,47.27 -49.21,108.34 -82.69,164.98 -25.93,43.75 -76.83,55.61 -123.12,38.46 -54.94,-20.36 -92.45,-71.94 -80.43,-122.69 17,-71.54 38.62,-142.21 62.45,-211.81 16.6,-48.26 51.86,-77.67 106.68,-72.49 53.12,4.86 85.17,34.98 95.76,87.15 6.72,32.77 12.14,65.65 21.35,116.4z"/>
   <path class="fil2" d="M16338.03 15992.86c-1.26,12.96 -27.35,31.1 -44.07,33.75 -37.78,6.13 -80.04,-46.44 -84.23,-98.02 -3.2,-38.5 35.02,-82.13 82.3,-81.19 9.6,0.32 34.7,15.22 37.78,29.17 8.5,37.63 11.7,77.79 8.22,116.29z"/>
   <path class="fil2" d="M13172.58 10391.65c2.25,-45.18 36.24,-71.81 58.85,-55.93 31.38,22.02 34.43,53.13 23.56,86.88 -3.88,12.25 -8.94,25.65 -17.43,34.98 -12.81,13.79 -29.13,24.54 -43.92,36.52 -59.52,-25.22 -22.72,-69.56 -21.06,-102.45z"/>
   <path class="fil2" d="M6593.1 11841.18c11.85,-43.63 35.41,-85.73 61.18,-123.67 23.87,-34.98 66.52,-58.97 104.19,-32.77 29.01,20.24 42.92,62.21 55.77,82.41 -4.03,88.81 -47.43,141.66 -119.92,162.57 -54.94,15.92 -116.28,-33.72 -101.22,-88.54z"/>
   <path class="fil2" d="M20108.37 13231.34c-11.18,85.77 -26.4,171.22 -47.19,255.06 -11.15,44.58 -46.56,61.89 -98.57,37.07 -30.64,-80.2 -23.28,-166.64 -8.78,-251.53 5.3,-30.56 25.65,-62.77 48.38,-84.51 15.93,-15.06 51.58,-23.99 71.1,-16.44 17.59,6.68 37.39,40.99 35.06,60.35z"/>
   <path class="fil2" d="M12490.18 9299.58c20.52,-13.79 65.42,-6 91.07,7.24 16.16,8.49 26.6,46.72 23.99,69.88 -18.14,161.3 -108.5,225.33 -261.3,186.28 -16.72,-4.35 -29.29,-25.38 -47.15,-41.7 36.99,-99.29 111.14,-165.77 193.39,-221.7z"/>
   <path class="fil2" d="M15767.22 3455.46c3.75,-180.98 76.91,-331.3 226.83,-443.66 89.52,-67.08 153.51,-63.99 230.19,20.35 30.67,34.03 61.78,76.56 70.71,119.64 25.77,125.22 43.91,252.09 7.11,379.95 -35.13,122.41 -166.24,186.84 -288.21,138.02 -80.47,-32.17 -125.77,-71.38 -246.63,-214.3z"/>
   <path class="fil2" d="M16162.9 11553.84c5.73,11.97 11.97,24.82 13.36,37.9 9.8,93.99 30,197.31 -41.27,270.23 -75.13,76.96 -178.89,43.08 -267.42,17.87 -214.46,-61.39 -280.27,-214.47 -189.36,-463.35 93.75,-5.89 180.31,-14.94 267.03,-15.61 106.67,-0.87 173.86,61.06 217.66,152.96z"/>
   <path class="fil2" d="M18968.76 10055.73c-24.82,4.9 -56.09,2.93 -78.1,-8.22 -100.55,-51.58 -173.32,-128.85 -192.01,-244.14 -4.87,-30.95 -0.44,-68.9 13.95,-96.37 30.55,-58.69 70.39,-112.64 112.92,-178.61 163.87,38.22 234.54,148.38 293.23,259.48 49.37,93.56 -43.79,247.39 -149.99,267.86z"/>
   <path class="fil2" d="M19550.48 11243.57c-53.67,-42.53 -70.31,-105.42 -51.78,-165.49 27.67,-90.08 65.54,-177.79 107.51,-262.29 19.01,-38.22 64.15,-48.65 107.51,-31.78 120.19,46.56 197.15,157 198.02,298.53 -4.15,23.84 -8.11,64.71 -18.86,103.6 -13.36,47.94 -44.3,84.5 -93.12,100.11 -89.91,28.7 -174.7,16.6 -249.28,-42.68z"/>
   <path class="fil2" d="M14825.86 3013.46c38.77,-12.69 69.99,-30.79 101.77,-32.22 202.76,-8.93 287.23,68.74 267.47,278.18 -6.29,66.64 -25.14,132.21 -39.33,203.71 -56.88,55.77 -134.03,53.83 -205.41,49.21 -72.33,-4.43 -147.51,-18.26 -209.72,-92.69 27.67,-131.38 56.21,-267.86 85.22,-406.19z"/>
   <path class="fil2" d="M13574.58 9678.15c-68.45,-4.19 -114.78,-52.29 -104.03,-121.58 12.57,-79.76 32.61,-158.81 55.77,-236.2 17.71,-59.56 83.4,-101.1 138.34,-97.46 77.94,5.13 146.12,61.89 157.11,133.15 4.19,26.49 3.64,53.8 4.19,62.61 -0.67,183.75 -90.08,269.64 -251.38,259.48z"/>
   <path class="fil2" d="M18035.38 9714.24c-38.1,-11.54 -75.73,-29.41 -108.77,-51.42 -114.74,-76.01 -132.33,-202.77 -44.35,-310.83 11.86,-14.34 32.21,-25.21 50.75,-30.11 156.16,-40.83 300.75,72.52 302.17,235.64 0.99,118.38 -89.13,190.47 -199.8,156.72z"/>
   <path class="fil2" d="M13650.71 10947.29c-49.21,57.71 -110.87,98.57 -190.91,100.12 -74.86,1.22 -133.83,-46.45 -132.01,-120.91 1.66,-72.65 13.08,-146.4 30.95,-216.95 12.69,-49.8 57.86,-71.94 108.34,-71.38 76.83,-0.71 134.7,30.94 165.64,98.14 19.41,42.25 31.23,89.4 37.91,135.53 3.4,24.15 -4.47,57.31 -19.92,75.45z"/>
   <path class="fil2" d="M16556.25 12374.53c-13.68,67.74 -56.36,104.58 -117.83,123.12 -58.41,17.7 -104.58,-9.05 -143.19,-50.04 -65.14,-68.89 -76.01,-135.14 -38.5,-219.64 29.56,-66.48 58.85,-133 94.38,-213.59 181.03,107.78 235.65,210.27 205.14,360.15z"/>
   <path class="fil2" d="M10456.56 9884.23c-46.84,-0.98 -94.27,-6.4 -139.88,-16.6 -104.42,-22.84 -147.23,-136.08 -77.67,-219.48 60.83,-72.49 139.72,-125.61 237.19,-141.22 71.38,-11.58 118.38,18.38 134.54,88.26 9.09,38.89 11.03,79.48 13.25,96.36 1.85,146.24 -45.18,195.17 -167.43,192.68z"/>
   <path class="fil2" d="M15619.12 11003.06c3.75,-81.42 9.05,-162.72 14.74,-244.03 1.03,-12.96 7.67,-25.65 20.67,-66.36 47.94,20.51 89.76,28.02 117.11,52.02 83.12,73.2 139.45,166.47 168.02,273.7 29.41,110.28 -64.7,202.89 -175.29,175.81 -92.25,-22.57 -149.6,-96.76 -145.25,-191.14z"/>
   <path class="fil2" d="M13447.59 11540.28c-38.65,162.72 -208.77,209.16 -325.64,88.69 -23.4,-23.99 -38.74,-80.31 -27.04,-109.05 32.93,-79.6 79.49,-154.34 126.88,-226.99 11.18,-17.15 49.09,-28.45 71.42,-24.38 51.46,9.21 100.78,29.56 170.94,51.73 -5.85,87.39 -1.42,156.01 -16.56,220z"/>
   <path class="fil2" d="M13667.74 10392.05c-37.82,44.34 -120.35,22.88 -150.47,-40.28 -39.01,-81.85 -53,-170.94 0.12,-249.6 40.32,-59.96 93.28,-113.91 149.36,-160.07 60.68,-49.92 134.82,-12.69 147.63,66.91 2.13,13.12 2.81,26.64 5.45,52.02 -14.62,118.53 -68.06,232.28 -152.09,331.02z"/>
   <path class="fil2" d="M13709.68 2791.33c24.98,-81.86 94.38,-139.13 176.52,-145.57 67.5,-5.3 175.56,54.27 204.69,112.8 34.63,69.01 -1.1,159.96 -76.28,180.98 -58.26,16.49 -119.32,23.44 -159.76,31.11 -125.76,-1.26 -177.11,-74.74 -145.17,-179.32z"/>
   <path class="fil2" d="M12828.48 3048.87c-33.88,21.07 -70.99,37.94 -108.38,52.45 -141.78,54.5 -196.72,14.51 -198.42,-142.53 -1.22,-127.31 37.24,-181.65 145.3,-204.66 93.99,-20.11 170.11,17.83 214.74,106.8 40.59,80.99 25.53,139.17 -53.24,187.94z"/>
   <path class="fil2" d="M19795.57 12627.05c-42.92,-127.31 -1.93,-246.52 44.75,-380.5 42.56,-2.97 68.89,-6.17 95.37,-6.29 53.32,-0.43 87.86,24.94 105.57,76.4 35.69,103.87 31.66,157.15 -28.73,310.11 -97.04,29.69 -97.2,31.5 -216.96,0.28z"/>
   <path class="fil2" d="M16667.08 12890.44c17.03,-112.8 54.82,-217.66 154.93,-282.52 65.26,24.27 96.05,71.26 100.39,124.82 5.7,72.09 2.65,146.56 -9.48,217.78 -8.38,48.38 -73.08,70.99 -133.44,60.39 -65.81,-11.58 -121.02,-62.88 -112.4,-120.47z"/>
   <path class="fil2" d="M9383.46 9584.99c-19.25,41.15 -46.87,85.06 -82.84,110.43 -85.3,59.84 -181.97,79.92 -295.88,45.62 -2.49,-68.46 -4.75,-132.89 -7.24,-197.31 48.14,-43.2 95.5,-87.27 144.74,-129.13 56.88,-48.38 117.83,-48.65 185.57,-4.15 63.76,41.82 87.98,105.41 55.65,174.54z"/>
   <path class="fil2" d="M15590.82 2799.15c-60.08,-25.37 -111.86,-40.15 -156.05,-67.35 -114.58,-70.55 -137.5,-170.39 -73.35,-292.95 20.51,-38.9 64.26,-56.48 100.94,-40.44 164.15,71.94 208.34,192.72 128.46,400.74z"/>
   <path class="fil2" d="M14845.66 9575.82c-0.12,-74.62 10.16,-146.99 51.02,-211.81 25.81,-40.87 89.53,-41.54 119.21,-1.38 80.75,109.44 77.67,223.47 -10.04,367.1 -137.58,-28.02 -159.92,-48.93 -160.19,-153.91z"/>
   <path class="fil2" d="M7887.06 10274.5c-66.21,5.45 -117.43,-61.78 -96.36,-122.84 38.93,-113.36 108.89,-202.61 217.66,-257.11 89.52,-44.78 158.81,2.21 156.16,104.58 16.05,165.49 -70.71,258.22 -277.46,275.37z"/>
   <path class="fil2" d="M15138.34 10785.12c-40.28,5.85 -100.55,-24.82 -113.52,-66.8 -13.51,-43.91 -16.99,-91.02 -22.84,-124.38 6.28,-53.52 7.67,-94.11 16.16,-133 12.14,-54.55 85.89,-75.85 128.82,-35.97 23.43,21.74 48.69,50.47 55.21,80.04 13,58.26 17.15,119.32 18.14,179.44 0.83,50.75 -39.44,94.39 -81.97,100.67z"/>
   <path class="fil2" d="M12621.96 3904.03c-39.33,93.55 -120.35,88.69 -223.95,74.74 -11.7,-100.39 -21.74,-185.18 -30.95,-264.66 46.33,-59.25 97.04,-91.89 159.8,-54.66 77.83,46.28 125.93,171.38 95.1,244.58z"/>
   <path class="fil2" d="M12045.14 9788.03c-49.49,30.67 -108.66,46.01 -149.49,61.9 -45.17,-9.21 -74.9,-8.78 -97.07,-21.62 -20.47,-11.86 -39.17,-35.69 -46.68,-58.26 -4.9,-14.23 6.52,-43.09 19.92,-53.01 72.1,-53.67 153.67,-82.68 244.03,-65.09 22.17,4.3 54.94,29.28 56.44,47.11 2.81,29.56 -6.56,76.12 -27.15,88.97z"/>
   <path class="fil2" d="M15213.91 11133.41c-12.85,38.22 -20.08,78.22 -31.11,122.73 19.13,73.47 18.54,157.15 89.37,214.14 46.05,37.11 95.81,48.97 150.75,27.47 52.01,-20.35 101.77,-91.3 92.72,-144.58 -18.69,-110.27 -76,-200.51 -169.4,-262.68 -51.74,-34.47 -113.95,-12.02 -132.33,42.92z"/>
   <path class="fil2" d="M16461.27 3956.59c149.52,24.98 177.66,53.01 172.76,166.64 -3.16,73.32 -45.73,109.01 -117.54,96.64 -19.21,-3.24 -38.74,-10.2 -55.62,-19.8 -16.83,-9.65 -30.39,-24.82 -50.35,-41.98 -3.32,-71.81 19.8,-137.9 50.75,-201.5z"/>
   <path class="fil2" d="M11906.13 4360.54c-45.34,10.43 -107.12,-21.62 -116.88,-58.42 -5.02,-19.37 -5.73,-39.76 -9.21,-64.98 5.18,-28.3 5.46,-63.71 18.86,-93.16 9.32,-20.91 39.17,-49.37 55.05,-46.56 28.19,4.86 65.65,25.26 75.97,49.21 18.14,41.86 20.67,91.06 25.81,137.62 4.07,36.53 -11.3,67.35 -49.6,76.29z"/>
   <path class="fil2" d="M16235.82 14768.78c-11.03,17.7 -45.06,33.87 -64.27,29.96 -19.24,-3.76 -48.81,-35.85 -46.71,-51.74 6.83,-50.59 26.2,-99.57 49.76,-179.17 80.59,77.51 102.05,134.7 61.22,200.95z"/>
   <path class="fil2" d="M15234.7 10033.44c-7.67,25.49 -36.01,44.74 -47.98,58.69 -61.23,-2.92 -101.94,-42.68 -86.05,-76 11.86,-25.22 40.59,-51.31 66.8,-58.7 35.45,-9.76 78.49,39.05 67.23,76.01z"/>
   <path class="fil4" d="M19740.24 12465c18.93,-104.19 18.1,-217.82 95.89,-325.05 62.76,6.44 116.55,12.57 170.55,17.43 69.6,6.28 115.29,46.44 132.05,109.88 28.02,105.84 41.81,213.9 5.57,321.53 -21.58,64.15 -63.75,103.04 -134.42,104.31 -20.52,0.27 -40.87,0.98 -61.23,0.98 -190.19,0.12 -241.33,-47.7 -208.41,-229.08zm-285.84 -1461.43c29.84,-89.09 71.62,-174.42 112.37,-259.36 25.77,-54.11 72.21,-72.49 134.81,-63.55 178.34,25.49 311.93,183.35 310.51,366.98 -2.05,252.64 -144.15,351.1 -387.18,268.42 -152.69,-52.02 -219.05,-167.19 -170.51,-312.49zm-334.54 -949.42c-89.8,69.72 -200.07,67.35 -298.37,-5.3 -78.34,-57.86 -134.86,-129.08 -160.51,-225.88 -18.38,-69.44 -17.55,-131.18 23,-192.96 43.95,-66.8 83.24,-136.68 122.01,-200.94 108.5,-21.07 185.45,25.37 246.68,87.03 60.94,61.46 112.92,134.66 155.73,210.27 52.84,93.4 2.92,256.95 -88.54,327.78zm-821.8 -377.14c-39.05,63.99 -93.59,93.12 -168.18,91.18 -148.77,-3.8 -254.06,-84.51 -336.19,-197.31 -19.61,-27.07 -20.91,-78.77 -11.15,-113.91 23.44,-84.23 57.31,-165.92 133.6,-234.82 130.07,-19.8 238.29,0.72 329.47,86.33 104.74,98.29 125.49,248.33 52.45,368.53zm-2547.88 -6185.74c-19.09,-22.05 -23.87,-63.99 -21.34,-95.53 3.91,-46.56 30.79,-92.29 29.52,-137.9 -5.25,-197.71 145.45,-276.2 275.81,-368.81 59.96,-42.64 125.76,-40.71 188.65,5.46 107.66,79.2 193.27,169.83 194.81,314.97 0.44,47.27 9.77,94.27 15.46,145.45 -8.06,49.88 -13.64,104.15 -26.21,156.72 -43.04,180.82 -197.3,262.68 -372.56,202.44 -120.9,-41.7 -204.54,-130.63 -284.14,-222.8zm-178.93 -659.11c-111.1,-25.93 -194.66,-92.73 -261.41,-181.54 -15.18,-20.08 -30,-52.73 -24.43,-74.19 21.9,-84.23 47.11,-168.29 81.14,-248.17 16.21,-38.5 60.12,-51.9 105.02,-39.21 178.22,50.35 273.43,174.85 272.6,376.07 -2.09,13.96 -3.51,48.38 -13.12,80.32 -21.18,70.67 -86.04,104.03 -159.8,86.72zm-108.45 8471.05c11.85,34.74 -6.56,66.64 -42.14,81.97 -35.65,15.5 -69.72,4.75 -89.52,-25.49 -46.4,-71.7 -55.61,-147.94 -14.78,-248.06 91.77,52.85 122.56,121.19 146.44,191.58zm-265.21 -488.45c-103.48,16.45 -187.27,-22.84 -210.71,-111.81 -14.9,-57.04 -9.6,-119.37 -10.87,-139.29 9.92,-94.26 11.98,-148.65 22.17,-201.49 8.54,-44.19 42.65,-65.38 87.27,-71.11 85.77,-10.87 142.81,34.43 185.34,99.29 53.99,82.25 66.91,175.8 59.68,272.44 -6.68,90.63 -49.53,138.61 -132.88,151.97zm-397.94 -1225.78c2.53,-93.67 19.37,-190.58 50.16,-278.96 37.98,-109.05 173.47,-121.62 248.77,-32.1 55.09,65.54 76.12,143.08 79.76,243.75 -3.76,23.68 -8.22,64.27 -17.04,103.87 -27.55,123.24 -61.18,153.91 -156.28,146.96 -121.73,-8.78 -208.17,-76.4 -205.37,-183.52zm536.83 458.77c-27.47,67.74 -69.61,95.8 -143.24,82.41 -38.06,-6.84 -76.8,-24.55 -108.73,-46.84 -41.54,-29.01 -53.13,-85.89 -26.64,-126.64 28.73,-44.03 65.37,-82.8 103.59,-129.92 44.9,18.11 83.95,28.86 117.67,48.5 68.06,39.6 86.32,100.67 57.35,172.49zm-1130.85 -4519.34c-11.42,-23.04 -27.19,-43.79 -47.94,-76.71 -28.02,62.6 -47.98,112.96 -72.53,160.78 -144.02,281.66 -479.79,304.82 -662.04,45.02 -26.87,-38.46 -51.46,-82.25 -62.6,-127.27 -73.99,-297.3 -48.78,-580.89 131.22,-838.71 74.35,-106.4 177.9,-139.17 302.28,-102.93 135.81,39.61 251.14,103.76 309.96,242.49 12.57,29.84 34.3,55.93 54.94,88.53 70.59,-44.58 84.78,-114.46 106.56,-176.08 40.98,-115.33 123.79,-169.12 237.97,-198.41 325.17,-83.4 650.9,77.39 767.89,350.11 34.74,80.86 57.31,166.91 90.75,248.49 45.06,110.12 24.42,213.87 -23.56,315.25 -80.98,171.22 -192.29,308.57 -380.94,375.36 -304.1,107.51 -606.5,-11.85 -751.96,-305.92zm-659.9 4181.08c-69.72,-20.67 -114.66,-72.52 -116.76,-147.94 -1.38,-46.6 6.01,-94.26 15.62,-140.15 15.21,-72.49 35.57,-143.87 53.28,-213.59 103.63,-99.17 212.76,-112.41 330.9,-32.65 52.96,35.69 89.09,82.29 94.5,147.94 2.69,33.6 3.79,67.51 4.35,101.22 3.36,205.26 -182.69,343.99 -381.89,285.17zm366 381.06c-19.64,108.77 -66.24,206.8 -131.5,294.62 -63.71,85.89 -141.66,93.71 -230.07,35.97 -82.81,-54.23 -111.82,-132.02 -111.54,-267.55 7.11,-18.85 21.34,-78.65 50.47,-129.68 51.62,-90.51 133.83,-151.42 225.61,-198.57 55.33,-28.3 106.52,-15.18 142.92,34.47 50.63,69.01 69.44,146.52 54.11,230.74zm-251.54 946.62c-98.57,70.55 -204.97,64.98 -306.35,9.48 -31.66,-17.27 -65.26,-58.69 -69.88,-92.84 -16.29,-122.01 -12.37,-244.02 70.27,-347.78 67.27,-84.5 136.52,-99.28 231.89,-51.3 89.13,44.74 154.63,108.89 174.7,210.71 9.09,46.28 17.71,92.56 29.57,154.89 -50.16,45.58 -86.84,85.89 -130.2,116.84zm-159.52 604.33c-57.03,78.77 -132.88,120.71 -229.08,95.77 -100.4,-25.93 -196.92,-67.35 -227.86,-180.83 -8.07,-29.56 -2.1,-69.16 11.42,-97.46 43.83,-91.62 93.99,-180.32 140.98,-268.42 125.65,-25.53 217.51,-2.53 302.84,42.53 26.8,14.19 56.76,47.83 60.4,75.69 15.06,115.61 14.78,231.34 -58.7,332.72zm266.48 -9040.13c144.14,-89.09 310.23,-56.72 410.03,79.92 77.58,105.97 30.83,256.99 -93.4,293.08 -64.39,18.69 -131.34,29.01 -174.15,38.06 -139.72,3.63 -223.39,-46.28 -248.61,-133.28 -32.37,-111.26 8.07,-217.11 106.13,-277.78zm935.03 734.41c30.52,-130.91 72.33,-259.48 116.29,-386.79 8.81,-25.49 47.82,-55.77 74.3,-57.15 72.92,-3.76 149.6,-4.47 219.32,14.07 98.18,26.2 157,97.35 171.5,203.31 14.94,109.17 8.54,215.69 -21.58,321.26 -26.24,92.01 -47.43,110 -139.05,116.84 -26.87,1.93 -54.07,0.27 -80.98,0.27 -0.99,4.9 -1.82,9.77 -2.81,14.67 -78.49,-17.04 -158.97,-27.91 -235.09,-52.45 -82.77,-26.76 -121.86,-88.1 -101.9,-174.03zm1895.17 544.22c110.87,35.69 157.27,115.05 146.4,232.72 -12.68,135.96 -89.24,184.62 -223.07,140.98 -25.38,-8.26 -51.19,-16.76 -75.02,-28.46 -54.23,-26.64 -77.55,-71.65 -71.11,-131.61 2.1,-19.96 3.6,-40.6 10.04,-59.25 17.43,-50.2 37.23,-99.44 64.11,-170.27 57.75,5.57 106.01,2.09 148.65,15.89zm-1022.7 7073.77c8.62,-106.91 14.03,-214.02 21.42,-329.32 96.8,-40.87 188.38,-26.2 260.91,44.07 83.12,80.43 149.6,175.69 182.92,289.99 49.25,169.17 -63.16,302.17 -238.14,280.71 -141.38,-17.43 -238.89,-141.1 -227.11,-285.45zm714.13 772.91c-28.3,190.31 -77.5,232.84 -269.67,215.41 -73.44,-6.52 -149.17,-21.03 -216.95,-48.78 -166.6,-67.9 -244.86,-217.94 -215.85,-394.06 6.72,-40.15 15.77,-80.31 28.02,-119.09 13.4,-42.09 45.18,-69.4 89.25,-71.93 60.95,-3.48 122.13,-0.83 183.2,-0.83 0.99,-6.29 1.82,-12.41 2.8,-18.7 78.22,16.72 162.57,20.24 233.28,53.13 140.98,65.8 187.94,236.79 165.92,384.85zm32.1 201.89c80.43,-37.23 146.95,3.64 208.73,61.78 46.99,44.19 93,89.52 139.28,134.42 0,-0.16 0,-0.43 0,-0.55 1.27,0.83 2.65,1.54 3.88,2.37 0.19,0.67 0.31,1.5 0.31,2.21l0 0c-1.38,-1.38 -2.8,-2.65 -4.19,-4.03 0.32,74.19 5.3,148.61 -0.55,222.25 -7.83,99.01 -70,160.9 -162.05,186.16 -97.98,26.76 -188.65,10.99 -254.46,-77.11 -69.25,-92.61 -104.7,-185.06 -33.04,-297.7 42.68,-66.92 65.8,-146.28 102.09,-229.8zm529.43 561.8c100,27.75 141.38,96.6 170.35,173.87 31.66,83.91 35.69,171.94 10.6,257.82 -30.36,103.6 -117.39,155.18 -216.52,135.81 -136.36,-26.92 -198.02,-97.75 -189.48,-218.1 8.65,-120.03 91.58,-251.26 225.05,-349.4zm-506.03 2237.06c-6.8,88.7 -66.8,135.69 -149.76,119.92 -81.42,-15.45 -133.16,-83.63 -112.25,-162.56 18.73,-70.56 50.19,-137.79 79.92,-216.56 122.29,13.24 175.8,61.93 182.09,157.86 2.13,33.6 2.65,67.75 0,101.34zm-3345.14 -11759.74c-6.99,30.39 -27.51,68.33 -52.88,81.69 -89.37,47.16 -181.26,92.18 -276.75,124.11 -77.67,25.93 -152.29,-21.18 -169.45,-103.87 -16.28,-78.77 -22.45,-161.34 -19.24,-241.77 1.3,-35.14 31.38,-74.19 58.3,-102.21 53.99,-56.09 124.66,-79.49 202.72,-78.22 161.22,1.78 292.95,163.27 257.3,320.27zm-424.18 1051.47c-32.76,7.79 -66.67,11.7 -100.39,14.78 -53.83,4.75 -92.05,-20.51 -111.85,-69.56 -36.64,-90.95 -37.63,-186.87 -17.99,-279.72 14.39,-67.9 56.36,-123.94 133.6,-136.91 75.05,-12.57 131.61,17.98 175.53,77.51 45.65,61.78 71.97,129.96 69.72,207.62 -3.88,115.73 -38.07,159.64 -148.62,186.28zm-49.92 5594.53c-91.34,22.6 -173.03,-7.39 -249.04,-53.68 -38.58,-23.55 -45.45,-89.36 -15.34,-126.04 29.73,-36.4 67.79,-66.36 94.98,-104.31 30.24,-42.25 52.85,-89.8 78.62,-135.25 -0.28,0 -0.68,0.16 -0.99,0.16 0.59,-0.71 1.26,-1.43 1.97,-2.26 0.16,0 0.28,-0.11 0.4,-0.27l-2.33 2.53c0,0 2.33,-2.53 2.21,-2.53 -0.39,0.83 -0.83,1.54 -1.26,2.37 13,-2.25 25.92,-5.3 38.89,-6.29 142.68,-10.15 223.67,32.65 237.62,125.1 19.53,128.14 -68.61,271.34 -185.73,300.47zm-387.5 197.3c-81.38,76.56 -249.32,97.59 -359.75,44.63 -82.65,-39.61 -106.36,-129.96 -48.65,-201.06 68.49,-84.51 159.68,-119.37 225.48,-111.98 62.45,3.05 82.97,2.1 102.61,5.3 57.9,9.33 98.57,42.37 117.7,97.31 21.35,61.77 12.81,118.81 -37.39,165.8zm-1585.09 109.17c-33.28,4.86 -67.47,3.64 -101.07,5.18 -84.07,-0.44 -161.18,-17.87 -224.66,-77.67 -54.9,-51.46 -72.64,-112.52 -49.21,-184.06 43.24,-132.17 196.05,-252.8 332.01,-263.51 97.31,-7.71 157.71,28.14 184.9,119.32 17.43,57.86 29.25,118.38 35.14,178.61 13.08,133.44 -43.4,202.49 -177.11,222.13zm-1207.76 -174.86c-67.63,27.75 -141.82,46.17 -214.46,53.56 -138.3,14.07 -237.47,-94.39 -158.42,-233.12 11.62,-20.39 32.93,-35.02 50.79,-51.89 -1.97,-74.74 50.04,-124.39 91.58,-173.71 90.12,-107.55 318.21,-53.56 366.43,82.25 43.4,122.13 -16,273.71 -135.92,322.91zm-1088 261.03c0.16,178.61 -61.38,251.69 -241.1,286.83 -32.88,6.56 -66.08,17.15 -99.13,17.43 -133.16,1.26 -199.28,-114.74 -160.35,-217.39 58.3,-153.95 143.75,-272.88 319.84,-297.42 123.98,-17.28 173.47,23.87 180.58,150.03 1.11,20.08 0.12,40.32 0.16,60.52zm3784.81 -5673.03c-9.76,22.89 -27.19,48.82 -48.26,59.53 -111.14,56.04 -264.1,-46.56 -252.37,-168.57 3.76,-39.73 15.62,-78.62 23.96,-117.95 17.86,-85.49 41.85,-108.77 114.34,-111.42 86.64,-3.08 131.78,24 151.42,100.4 13.4,51.46 17.71,105.41 24.82,151.3 -4.86,34.42 -3.75,63 -13.91,86.71zm9262.46 9312.82c-102.89,-209.84 -366.99,-303.4 -570.7,-219.88 -199.92,81.86 -358.61,352.2 -245.81,592.48 22.45,47.66 41.82,96.87 62.57,145.29 116.05,78.22 230.51,52.68 341.93,-10.36 107.35,-60.63 168.14,-183.75 148.89,-290.82 -13.24,-74.35 -78.89,-131.5 -156.56,-136.12 -54.94,-3.32 -75.57,19.52 -107.66,122.17 16.87,8.06 34.3,16.72 52.01,24.54 17.59,7.51 35.57,14.07 54.66,21.58 -42.21,59.84 -46,65.97 -67.9,58.86 -30.79,-10.04 -72.37,-18.82 -86.44,-41.98 -36.96,-61.07 -39.05,-133 2.92,-192.41 37.51,-53 96.33,-69.72 163.28,-58.85 171.1,27.91 283.2,218.49 196.04,389.44 -108.06,211.81 -387.61,306.2 -637.21,223.12 -192.96,-64.15 -290.75,-216.01 -340.51,-402.29 -20.87,-78.06 -29.01,-159.52 -41.54,-232.17 -186.71,-88.65 -194.22,-100.51 -180.43,-297.38 2.81,-40.59 8.06,-81.58 18.7,-120.63 22.84,-84.07 68.45,-146.56 162.84,-161.62 38.77,-6.12 75.85,-22.01 114.07,-33.59 23.55,-72.21 47.82,-135.37 64.82,-200.51 55.37,-210.27 110.43,-420.66 160.07,-632.47 14.78,-63.01 40.71,-131.9 -8.22,-196.72 -57.86,-18.58 -117.27,-33.36 -173.32,-56.36 -118.93,-48.77 -184.06,-136.48 -176.67,-269.24 4.07,-74.74 10.59,-149.33 16.88,-223.79 4.19,-51.46 30.11,-90.08 74.86,-114.47 47.58,-25.92 96.91,-48.26 144.62,-73.75 34.3,-18.42 67.19,-39.6 108.73,-64.42 -63.44,-293.24 -148.22,-568.05 -323.91,-817.53 -146.67,62.88 -272,7.11 -398.37,-44.75 -74.97,-30.82 -125.17,-87.7 -139.95,-163.98 -14.07,-72.06 -14.51,-147.94 -12.57,-221.82 1.58,-53.12 16.99,-105.84 26.36,-159.52 -111.38,-118.53 -230.07,-218.21 -370.62,-290.43 -102.88,-52.88 -203.43,-110.86 -309.01,-157.7 -334.45,-148.26 -683.61,-226.04 -1051.31,-198.14 -114.47,8.62 -226.87,32.49 -332.56,74.86 -21.86,73.64 -34.03,141.38 -61.62,202.05 -39.45,86.17 -108.5,137.47 -209.56,134.15 -96.64,-3.24 -172.65,-34.74 -202.05,-137.07 -6.96,-24.43 -19.65,-47.15 -29.57,-70.43 -63.67,-3.48 -118.93,-0.4 -171.65,-10.6 -119.76,-23.16 -240.23,-46 -356.67,-81.3 -239.37,-72.65 -331.14,-287.5 -443.23,-480.46 -9.49,-16.32 -8.82,-39.76 -9.65,-59.96 -6.36,-149.64 -8.93,-297.15 41.27,-443.7 57.62,-168.02 126.63,-329.32 209.32,-486.47 139.01,-264.39 301.18,-517.86 385.8,-808.6 43.79,-150.04 100.39,-296.55 137.47,-447.97 64.58,-264.27 145.29,-528.33 170.82,-797.18 42.85,-453.31 53.24,-910.37 -35.97,-1362.41 -29.13,-146.84 -63.75,-293.08 -83.12,-441.3 -53.08,-407.3 -214.3,-770.22 -439.47,-1108.51 -80.32,-120.63 -177.78,-223.23 -300.51,-301.02 -126.28,-80.19 -250.15,-164.7 -379.67,-239.28 -152.53,-88.14 -316.08,-152.25 -491.37,-202.72 -69.69,92.29 -117,189.76 -164.54,286.51 -70.67,144.19 -189.88,209.88 -344.11,214.46 -153.79,4.59 -297.14,-38.06 -422.63,-127.58 -156.13,-111.42 -244.86,-251.14 -174.31,-453.03 17.19,-49.21 31.54,-104.15 -6.95,-162.73 -135.93,-20.35 -265.22,11.58 -390.82,52.17 -4.47,20.2 -10.48,33.05 -9.65,45.58 16.32,268.84 -103.44,416.23 -359.99,441.33 -40.71,3.87 -81.58,7.79 -122.29,7.94 -119.21,0.68 -190.47,-36.12 -213.2,-145.84 -6.12,-29.45 -25.65,-56.21 -44.07,-94.55 -365.05,210.12 -648.64,485.92 -905.63,804.81 73.76,84.22 93.44,173.75 72.65,272.32 -25.33,120.47 -70,151.14 -200.23,136.64 -26.32,-2.93 -52.85,-3.32 -84.78,-5.14 -63.83,114.58 -142.49,214.58 -74.86,359.16 27.07,57.75 22.57,150.47 -35.85,189.8 -136.76,91.85 -131.89,226.28 -139.72,362.36 -14.74,260.9 31.38,515.92 78.5,769.71 27.23,146.4 71.54,289.99 116.16,432.36 67.07,214.02 158.69,419.16 239.4,628 163.99,424.74 324.74,851.96 458.21,1286.85 135.53,441.73 232.01,893.5 182.76,1364.08 -11.82,113.39 -43.75,212.64 -105.81,303.15 -37.62,54.78 -86.44,101.78 -130.51,151.97 -127.27,102.65 -256.16,208.62 -410.89,261.58 -158.66,54.27 -326.6,82.01 -490.43,121.3 -11.26,59.56 -13.08,116 -32.76,165.25 -72.89,182.37 -185.73,248.06 -367.27,191.7 -122.09,-37.91 -155.17,-79.72 -149.04,-206.36 3.36,-66.64 10.75,-133.16 15.77,-193.24 -187.71,-118.81 -575.21,-248.49 -761.88,-256.28 -12.69,18.82 -30.83,39.33 -41.7,63.16 -98.97,218.06 -105.14,222.25 -332.96,205.93 -6.68,-0.4 -13.55,-1.23 -20.23,-1.78 -176.09,-14.94 -217.67,-55.37 -244.31,-235.96 -5.53,-38.18 -13.91,-75.97 -20.19,-109.45 -256.28,-33.59 -483.82,1.27 -692.44,105.14 0.72,104.15 -9.05,211.54 -72.48,306.47 -78.66,117.55 -201.22,131.23 -324.23,138.46 -98.53,5.73 -140.55,-66.76 -174.69,-145.57 -7.4,-17.15 -25.78,-29.41 -38.34,-43.08 -286.36,119.64 -635.4,378.56 -766.35,571.68 83.56,156.16 -7.11,269.8 -97.74,397.94 -108.62,153.51 -250.12,134.14 -393.91,112.13 -67.15,73.59 -115.57,144.58 -152.96,242.32 60.28,3.64 105.02,4.04 149.21,9.61 78.81,10.04 123.55,56.92 122.01,135.85 -1.1,53.67 -10.59,108.45 -24.54,160.62 -43.76,164.11 -190.31,232.69 -348.73,166.21 -28.42,-12.02 -56.05,-25.66 -84.35,-38.66 -73.2,96.8 -69.44,200.67 -110.86,331.02 122.56,-97.74 220.59,-92.84 326,-21.46 7.55,31.78 24.11,70.71 24.98,109.88 3.04,160.35 -105.14,250.7 -265.92,224.62 -26.33,-4.19 -50.75,-19.25 -77.12,-25.22 -9.33,-2.1 -21.46,8.22 -37.63,15.06 0,50.87 0,103.99 0,153.35 77.12,76.84 156.88,143.48 168.7,224.35 -8.46,192.28 -138.74,249.04 -259.05,310.54 -13.79,36.13 -25.25,68.02 -38.06,99.29 -46.84,112.92 -92.33,226.43 -142.09,338.09 -44.86,100.83 -127.47,157.71 -233.99,178.5 -59.92,11.69 -121.3,25.25 -181.65,23.71 -182.92,-4.35 -326.56,-86.44 -425.01,-240.94 -46.17,-72.53 -42.97,-163.28 6.28,-208.89 71.54,-66.24 153.63,-112.53 256.28,-107.9 92.45,4.15 166.91,71.77 177.35,165.65 6.56,58.14 -14.07,111.38 -60.08,144.02 -28.46,20.2 -70.99,20.48 -155.21,41.98 58.18,-62.89 85.21,-87.59 106.51,-116.28 27.4,-36.84 26.64,-81.74 -2.21,-113.4 -19.76,-21.74 -60.51,-42.09 -86.6,-36.8 -51.42,10.6 -102.05,34.59 -147.38,62.18 -40.83,24.7 -52.3,83.83 -29.41,128.29 48.65,94.39 118.81,165.81 226.99,189.09 97.63,21.03 172.92,-13.12 224.93,-99.29 86.6,-143.35 75.69,-307.74 -28.89,-436.86 -116.68,-144.03 -300.07,-208.85 -454.14,-148.22 -203.67,80.19 -336.31,220.74 -367.1,449 -42.1,311.61 131.61,603.34 427.77,704.57 215.14,73.59 431.14,51.58 643.23,-4.35 158.26,-41.7 312.16,-106.92 423.98,-232.72 126.64,-142.49 235.09,-299.48 315.01,-474.22 99.56,-217.62 162.57,-445.21 203.83,-681.52 34.86,-200.51 85.89,-399.09 142.8,-594.69 74.47,-256.87 187.67,-501.57 354.14,-708.6 315.85,-392.96 702.75,-681.29 1229.7,-723.7 33.75,-2.65 66.79,-13.24 100.39,-18.81 406.31,-66.52 813.3,-72.65 1219.61,-3.76 429.8,72.92 861.01,122.01 1297.88,119.37 225.49,-1.27 445.91,-23.56 665.63,-81.31 546.91,-144.02 893.81,-492.08 1076.18,-1017.6 15.65,-44.9 27.04,-91.58 45.57,-135.09 5.73,-13.4 28.9,-19.09 56.37,-35.7 31.1,89.25 21.02,169.96 8.22,246.92 -40.71,242.08 -55.93,485.95 -64.71,730.49 -1.93,53.56 -0.27,107.23 -0.27,142.37 16.72,23.99 19.8,30.39 24.66,35.02 138.18,132.72 130.12,225.72 -27.75,313.59 -11.81,6.52 -26.32,8.34 -37.9,15.06 -79.33,45.84 -105.02,121.14 -69.17,207.74 12.97,31.22 30.52,60.94 48.1,90.07 38.62,64 35.97,132.18 11.58,197.04 -46.12,122.68 -109.32,241.77 -226.59,305.2 -99.96,53.96 -169.4,132.89 -240.39,213.64 -69.8,79.6 -147.39,153.79 -223.24,272.84 89.53,-34.27 148.5,-56.88 206.8,-79.17 13.52,-53.28 53.83,-71.11 106.79,-76.44 15.54,8.81 35.14,16.04 50.2,29.01 136.28,117.7 156.32,233.83 48.1,370.78 -57.66,73.2 -130.35,140 -208.73,190.31 -128.14,82.29 -329.32,11.58 -399.47,-126.04 -16.57,-32.49 3.91,-85.5 -65.1,-100.83 -63.28,46.01 -138.34,89.8 -190.63,167.62 26.64,92.17 69.33,178.34 45.73,277.9 -50.59,213.47 -262.8,290.86 -436.71,155.89 -20.04,-15.77 -40.27,-31.39 -62.45,-48.66 -55.33,50.04 -116.99,83.36 -121.85,161.3 178.89,33.6 225.17,70.83 249,199.25 14.51,77.94 -12.25,148.81 -49.2,214.18 -81.15,144.03 -228.42,179.17 -363.08,85.06 -53.67,-37.51 -98.3,-87.55 -153.67,-137.75 -87.55,86.84 -152.13,176.64 -178.22,290.55 88.46,46.72 197.59,35.41 252.41,124.54 -66.64,392.09 -173.59,473.78 -512.56,384.81 -10.99,40.72 -21.9,81.47 -35.02,130.24 42.97,0 69.72,-2.49 96.09,0.43 157.15,17.28 227.7,117.83 186.12,266.76 -16.29,58.81 -33.16,118.21 -57.31,174.14 -47.51,110.43 -100.79,128.69 -241.89,90.35 0.43,1.11 0.95,2.22 1.38,3.32 -37.79,0 -75.41,0 -113.36,0 0,41.15 0,73.92 0,94.15 61.5,33.72 124.51,51.7 161.19,93 43.35,48.94 75.84,115.18 65.13,187.67 -25.93,175.53 -80.04,331.02 -284.73,365.6 -10.28,40 -16.72,73.48 -27.63,105.26 -37.04,109.04 -70.4,219.75 -115.45,325.44 -53.24,124.39 -149.05,209.01 -277.74,254.74 -32.06,11.46 -62.73,29.44 -95.65,35.18 -64.71,10.98 -106.4,41.81 -144.47,98.41 -31.62,47.16 -87.42,88.14 -141.38,108.34 -169.4,63.44 -331.02,-54.11 -319.71,-224.18 5.45,-82.3 77.94,-139.33 153.63,-117 16.21,4.75 35.3,24.82 38.22,40.55 2.25,12.3 -15.77,36.29 -30.12,42.14 -81.58,33.04 -99.12,59.52 -70.39,117.66 39.72,80.04 123.67,112.69 204.94,79.49 143.23,-58.42 188.09,-296.44 80.59,-418.85 -87,-99.16 -198.26,-120.9 -315.69,-85.49 -116.83,35.3 -204.1,121.46 -230.58,239.68 -48.22,215.57 24.38,462.79 267.54,553.58 70.04,26.05 140.43,53.24 212.8,70.4 268.02,63.43 513.27,25.53 720.18,-171.78 49.21,-46.99 104.3,-87.86 152.96,-135.25 158.26,-154.66 282.64,-329.36 329.48,-551.89 53.12,-252.64 113.63,-503.9 165.37,-756.97 35.57,-173.91 87.7,-339.4 158.37,-503.78 173.36,-402.84 451.65,-710.3 818.64,-936.74 219.48,-135.37 453.7,-246.63 681.13,-368.8 59.84,-32.22 125.49,-56.88 178.06,-98.14 225.33,-177.23 438.8,-366.71 584.09,-619.95 37.24,-64.98 75.58,-129.25 115.57,-192.41 213.64,-337.85 344.7,-707.49 424.74,-1096.93 47.82,-232.72 89.24,-466.98 143.47,-698.28 58.89,-251.53 124.66,-501.84 195.93,-750.18 59.95,-208.61 112.92,-420.94 230.62,-608.04 15.46,-24.55 32.77,-41.43 74.15,-16.33 -3.87,34.15 -6.52,73.91 -12.96,112.8 -39.13,242.05 -62.02,485.21 -64.71,730.62 -3.16,293.51 12.69,579.91 119.09,862.15 151.46,401.69 383.59,747.65 660.22,1068.47 137.63,159.64 288.93,308.02 418.73,473.51 197.58,251.97 314.85,538.09 314.85,865.19 -0.12,489 -110.31,956.27 -267.03,1416.25 -130.07,381.77 -205.8,774.96 -208.02,1180.17 -0.94,173.04 39.02,338.25 106.25,495.4 135.96,317.51 379.67,491.77 724.76,508.25 259.64,12.41 484.69,-74.46 641.84,-290.03 133.99,-183.79 143.75,-344.26 -0.16,-521.61 -90.59,-111.85 -329.75,-143.63 -447.02,-56.2 -30.51,22.73 -58.69,58.85 -70.55,94.66 -30.51,92.45 -27.31,188.26 3.08,281.1 23.87,72.53 78.62,109.88 153.63,111.7 78.82,2.09 149.92,-41.98 179.17,-110.87 25.69,-60.63 -3.76,-111.82 -75.29,-133.55 -21.19,-6.45 -56.33,9.48 -58.54,-38.22 13.79,-10.04 27.75,-26.76 44.9,-31.35 67.19,-17.86 121.02,8.78 159.92,62.02 37.78,51.73 35.96,167.34 -4.87,212.24 -82.4,90.75 -181.3,143.2 -308.84,113.36 -115.45,-27.07 -165.25,-112.96 -186.99,-218.77 -12.26,-59.13 -15.06,-120.19 -22.18,-180.86 -51.85,5.29 -98.45,15.21 -144.46,13.4 -49.6,-1.98 -93,-27.47 -114.07,-74.47 -28.97,-64.27 -40.98,-135.41 3.64,-194.38 39.21,-52.02 99.68,-66.92 165.53,-44.19 17.98,6.28 37.9,6.56 57.15,9.05 4.35,-61.18 0.55,-120.19 -44.46,-166.75 -243.75,-72.1 -311.93,-146.28 -296.87,-320.71 16.6,-193.23 108.33,-263.11 378.56,-282.36 65.97,-109.45 76.96,-237.58 107.08,-375.6 -144.55,-95.69 -177.19,-229.8 -117.39,-389.88 64.98,-174.3 212.36,-189.64 367.81,-186.43 51.07,-84.63 93.16,-166.21 113.64,-283.48 -124.62,80.2 -221.81,54.83 -309.52,-24.54 -43.48,-39.29 -62.49,-88.81 -44.78,-147.23 25.53,-84.23 49.52,-169.13 79.88,-251.53 13.4,-36.25 40.87,-67.2 57.47,-93.56 139.87,-17.98 234.93,33.04 313.15,151.7 98.73,-355.69 130.23,-691.33 -16.16,-1028.48 -129.37,-18.53 -225.06,-73.47 -279.72,-189.36 -8.89,-18.93 -38.06,-28.42 -59.68,-41.38 -9.01,-87.71 -78.78,-138.73 -127.15,-201.06 -116.4,-149.92 -156.44,-313.04 -105.14,-496.83 5.45,-19.64 13.83,-38.61 17.04,-58.57 11.02,-68.19 -30.12,-115.85 -101.23,-117.79 -20.23,-0.43 -40.75,5.85 -60.83,4.15 -119.72,-9.05 -181.65,-86.44 -163.11,-207.46 8.1,-52.57 24.54,-103.87 38.77,-161.74 -68.3,-70.55 -135.69,-137.07 -199.68,-206.91 -68.02,-74.35 -132.88,-151.58 -193.95,-221.73 -61.89,0 -109.88,4.19 -156.87,-0.83 -177.07,-18.98 -253.2,-160.08 -149.88,-302.45 56.32,-77.51 60.91,-141.1 37.23,-224.73 -57.86,-204.31 -74.74,-414.14 -72.64,-625.96 1.1,-103.59 16.83,-203.55 66.36,-295.29 17.15,-31.93 45.73,-50.35 91.46,-15.92 -14.78,211.81 109.72,361.57 261.85,492.24 162.72,139.56 354.85,224.73 562.63,274.26 178.34,42.53 359.32,75.57 535.68,125.21 190.63,53.68 383.75,85.89 579.63,110.83 308.89,39.33 588.45,151.58 839.71,339.95 226.16,169.29 415.64,370.19 567.49,606.67 150.87,234.97 273.99,484.53 363.91,749.07 86.2,253.31 121.45,515.04 100.82,782.47 -16.16,209.72 -32.21,419.59 -55.77,628.44 -29.68,264.11 -47.7,528.33 -21.5,792.99 20.67,208.45 96.92,401.96 249.48,544.49 145.29,135.92 334.22,216.24 529,248.61 159.09,26.32 327.26,26.32 487.89,7.67 328.93,-38.07 652.12,-194.94 755.32,-634.57 34.58,-147.94 19.25,-284.19 -45.33,-415.68z"/>
  </g>
 </g>
</svg>
